<mxfile host="Electron" modified="2024-07-10T07:00:29.711Z" agent="Mozilla/5.0 (Macintosh; Intel Mac OS X 10_15_7) AppleWebKit/537.36 (KHTML, like Gecko) draw.io/24.6.4 Chrome/124.0.6367.207 Electron/30.0.6 Safari/537.36" etag="DcwvqZmTOpAKqq0UPqRw" version="24.6.4" type="device" pages="2">
  <diagram name="Page-1" id="XW5mswTh6QjGJ9URRzEv">
    <mxGraphModel dx="1183" dy="794" grid="1" gridSize="10" guides="1" tooltips="1" connect="1" arrows="1" fold="1" page="1" pageScale="1" pageWidth="3000" pageHeight="6000" math="0" shadow="0">
      <root>
        <mxCell id="0" />
        <mxCell id="1" style="" parent="0" />
        <mxCell id="GyT0Gai-QQJEyU2q_moY-1" value="" style="strokeWidth=1;shadow=0;dashed=0;align=center;html=1;shape=mxgraph.mockup.containers.browserWindow;rSize=0;strokeColor=#666666;strokeColor2=#008cff;strokeColor3=#c4c4c4;mainText=,;recursiveResize=0;" vertex="1" parent="1">
          <mxGeometry x="40" y="190" width="1020" height="650" as="geometry" />
        </mxCell>
        <mxCell id="GyT0Gai-QQJEyU2q_moY-2" value="Page 1" style="strokeWidth=1;shadow=0;dashed=0;align=center;html=1;shape=mxgraph.mockup.containers.anchor;fontSize=17;fontColor=#666666;align=left;whiteSpace=wrap;" vertex="1" parent="GyT0Gai-QQJEyU2q_moY-1">
          <mxGeometry x="60" y="12" width="110" height="26" as="geometry" />
        </mxCell>
        <mxCell id="GyT0Gai-QQJEyU2q_moY-3" value="https://www.draw.io" style="strokeWidth=1;shadow=0;dashed=0;align=center;html=1;shape=mxgraph.mockup.containers.anchor;rSize=0;fontSize=17;fontColor=#666666;align=left;" vertex="1" parent="GyT0Gai-QQJEyU2q_moY-1">
          <mxGeometry x="130" y="60" width="250" height="26" as="geometry" />
        </mxCell>
        <mxCell id="GyT0Gai-QQJEyU2q_moY-5" value="" style="rounded=0;whiteSpace=wrap;html=1;strokeWidth=2;" vertex="1" parent="GyT0Gai-QQJEyU2q_moY-1">
          <mxGeometry y="110" width="1020" height="60" as="geometry" />
        </mxCell>
        <mxCell id="GyT0Gai-QQJEyU2q_moY-10" value="" style="group;strokeWidth=2;fillColor=#FFFFFF;strokeColor=#000000;" vertex="1" connectable="0" parent="GyT0Gai-QQJEyU2q_moY-1">
          <mxGeometry x="570" y="120" width="290" height="40" as="geometry" />
        </mxCell>
        <mxCell id="GyT0Gai-QQJEyU2q_moY-6" value="Link" style="html=1;shadow=0;dashed=0;shape=mxgraph.bootstrap.rrect;rSize=5;strokeColor=none;strokeWidth=1;fillColor=none;fontColor=#000000;whiteSpace=wrap;align=center;verticalAlign=middle;spacingLeft=0;fontStyle=0;fontSize=16;spacing=5;fontFamily=Helvetica;" vertex="1" parent="GyT0Gai-QQJEyU2q_moY-10">
          <mxGeometry x="152" y="4" width="60" height="32" as="geometry" />
        </mxCell>
        <mxCell id="GyT0Gai-QQJEyU2q_moY-7" value="Link" style="html=1;shadow=0;dashed=0;shape=mxgraph.bootstrap.rrect;rSize=5;strokeColor=none;strokeWidth=1;fillColor=none;fontColor=#000000;whiteSpace=wrap;align=center;verticalAlign=middle;spacingLeft=0;fontStyle=0;fontSize=16;spacing=5;fontFamily=Helvetica;" vertex="1" parent="GyT0Gai-QQJEyU2q_moY-10">
          <mxGeometry x="225" y="4" width="60" height="32" as="geometry" />
        </mxCell>
        <mxCell id="GyT0Gai-QQJEyU2q_moY-8" value="Link" style="html=1;shadow=0;dashed=0;shape=mxgraph.bootstrap.rrect;rSize=5;strokeColor=none;strokeWidth=1;fillColor=none;fontColor=#000000;whiteSpace=wrap;align=center;verticalAlign=middle;spacingLeft=0;fontStyle=0;fontSize=16;spacing=5;fontFamily=Helvetica;" vertex="1" parent="GyT0Gai-QQJEyU2q_moY-10">
          <mxGeometry x="78" y="4" width="60" height="32" as="geometry" />
        </mxCell>
        <mxCell id="GyT0Gai-QQJEyU2q_moY-9" value="&lt;font&gt;Link&lt;/font&gt;" style="html=1;shadow=0;dashed=0;shape=mxgraph.bootstrap.rrect;rSize=5;strokeColor=none;strokeWidth=1;fillColor=none;fontColor=#000000;whiteSpace=wrap;align=center;verticalAlign=middle;spacingLeft=0;fontStyle=0;fontSize=16;spacing=5;fontFamily=Helvetica;" vertex="1" parent="GyT0Gai-QQJEyU2q_moY-10">
          <mxGeometry x="5" y="4" width="60" height="32" as="geometry" />
        </mxCell>
        <mxCell id="GyT0Gai-QQJEyU2q_moY-13" value="&lt;font style=&quot;font-size: 16px;&quot;&gt;Vanessa Coles&lt;/font&gt;" style="text;strokeColor=none;fillColor=none;align=center;verticalAlign=top;spacingLeft=4;spacingRight=4;overflow=hidden;rotatable=0;points=[[0,0.5],[1,0.5]];portConstraint=eastwest;whiteSpace=wrap;html=1;" vertex="1" parent="GyT0Gai-QQJEyU2q_moY-1">
          <mxGeometry x="41" y="125" width="129" height="26" as="geometry" />
        </mxCell>
        <mxCell id="GyT0Gai-QQJEyU2q_moY-19" value="&lt;font style=&quot;font-size: 14px;&quot;&gt;ThemeSwitcher&lt;/font&gt;" style="rounded=0;whiteSpace=wrap;html=1;strokeWidth=2;" vertex="1" parent="GyT0Gai-QQJEyU2q_moY-1">
          <mxGeometry x="878" y="120" width="120" height="40" as="geometry" />
        </mxCell>
        <mxCell id="k-J_ichgHFrV_qxmjCFs-2" value="" style="strokeWidth=1;shadow=0;dashed=0;align=center;html=1;shape=mxgraph.mockup.containers.browserWindow;rSize=0;strokeColor=#666666;strokeColor2=#008cff;strokeColor3=#c4c4c4;mainText=,;recursiveResize=0;" vertex="1" parent="1">
          <mxGeometry x="1090" y="190" width="1020" height="650" as="geometry" />
        </mxCell>
        <mxCell id="k-J_ichgHFrV_qxmjCFs-3" value="Page 1" style="strokeWidth=1;shadow=0;dashed=0;align=center;html=1;shape=mxgraph.mockup.containers.anchor;fontSize=17;fontColor=#666666;align=left;whiteSpace=wrap;" vertex="1" parent="k-J_ichgHFrV_qxmjCFs-2">
          <mxGeometry x="60" y="12" width="110" height="26" as="geometry" />
        </mxCell>
        <mxCell id="k-J_ichgHFrV_qxmjCFs-4" value="https://www.draw.io" style="strokeWidth=1;shadow=0;dashed=0;align=center;html=1;shape=mxgraph.mockup.containers.anchor;rSize=0;fontSize=17;fontColor=#666666;align=left;" vertex="1" parent="k-J_ichgHFrV_qxmjCFs-2">
          <mxGeometry x="130" y="60" width="250" height="26" as="geometry" />
        </mxCell>
        <mxCell id="k-J_ichgHFrV_qxmjCFs-5" value="" style="rounded=0;whiteSpace=wrap;html=1;strokeWidth=2;" vertex="1" parent="k-J_ichgHFrV_qxmjCFs-2">
          <mxGeometry y="110" width="1020" height="60" as="geometry" />
        </mxCell>
        <mxCell id="k-J_ichgHFrV_qxmjCFs-6" value="" style="group;strokeWidth=2;fillColor=#FFFFFF;strokeColor=#000000;" vertex="1" connectable="0" parent="k-J_ichgHFrV_qxmjCFs-2">
          <mxGeometry x="570" y="120" width="290" height="40" as="geometry" />
        </mxCell>
        <mxCell id="k-J_ichgHFrV_qxmjCFs-7" value="Link" style="html=1;shadow=0;dashed=0;shape=mxgraph.bootstrap.rrect;rSize=5;strokeColor=none;strokeWidth=1;fillColor=none;fontColor=#000000;whiteSpace=wrap;align=center;verticalAlign=middle;spacingLeft=0;fontStyle=0;fontSize=16;spacing=5;fontFamily=Helvetica;" vertex="1" parent="k-J_ichgHFrV_qxmjCFs-6">
          <mxGeometry x="152" y="4" width="60" height="32" as="geometry" />
        </mxCell>
        <mxCell id="k-J_ichgHFrV_qxmjCFs-8" value="Link" style="html=1;shadow=0;dashed=0;shape=mxgraph.bootstrap.rrect;rSize=5;strokeColor=none;strokeWidth=1;fillColor=none;fontColor=#000000;whiteSpace=wrap;align=center;verticalAlign=middle;spacingLeft=0;fontStyle=0;fontSize=16;spacing=5;fontFamily=Helvetica;" vertex="1" parent="k-J_ichgHFrV_qxmjCFs-6">
          <mxGeometry x="225" y="4" width="60" height="32" as="geometry" />
        </mxCell>
        <mxCell id="k-J_ichgHFrV_qxmjCFs-9" value="Link" style="html=1;shadow=0;dashed=0;shape=mxgraph.bootstrap.rrect;rSize=5;strokeColor=none;strokeWidth=1;fillColor=none;fontColor=#000000;whiteSpace=wrap;align=center;verticalAlign=middle;spacingLeft=0;fontStyle=0;fontSize=16;spacing=5;fontFamily=Helvetica;" vertex="1" parent="k-J_ichgHFrV_qxmjCFs-6">
          <mxGeometry x="78" y="4" width="60" height="32" as="geometry" />
        </mxCell>
        <mxCell id="k-J_ichgHFrV_qxmjCFs-10" value="&lt;font&gt;Link&lt;/font&gt;" style="html=1;shadow=0;dashed=0;shape=mxgraph.bootstrap.rrect;rSize=5;strokeColor=none;strokeWidth=1;fillColor=none;fontColor=#000000;whiteSpace=wrap;align=center;verticalAlign=middle;spacingLeft=0;fontStyle=0;fontSize=16;spacing=5;fontFamily=Helvetica;" vertex="1" parent="k-J_ichgHFrV_qxmjCFs-6">
          <mxGeometry x="5" y="4" width="60" height="32" as="geometry" />
        </mxCell>
        <mxCell id="k-J_ichgHFrV_qxmjCFs-11" value="&lt;font style=&quot;font-size: 16px;&quot;&gt;Vanessa Coles&lt;/font&gt;" style="text;strokeColor=none;fillColor=none;align=center;verticalAlign=top;spacingLeft=4;spacingRight=4;overflow=hidden;rotatable=0;points=[[0,0.5],[1,0.5]];portConstraint=eastwest;whiteSpace=wrap;html=1;" vertex="1" parent="k-J_ichgHFrV_qxmjCFs-2">
          <mxGeometry x="41" y="125" width="129" height="26" as="geometry" />
        </mxCell>
        <mxCell id="k-J_ichgHFrV_qxmjCFs-12" value="&lt;font style=&quot;font-size: 14px;&quot;&gt;ThemeSwitcher&lt;/font&gt;" style="rounded=0;whiteSpace=wrap;html=1;strokeWidth=2;" vertex="1" parent="k-J_ichgHFrV_qxmjCFs-2">
          <mxGeometry x="878" y="120" width="120" height="40" as="geometry" />
        </mxCell>
        <mxCell id="k-J_ichgHFrV_qxmjCFs-24" value="" style="verticalLabelPosition=bottom;verticalAlign=top;html=1;shape=mxgraph.basic.rect;fillColor2=none;strokeWidth=2;size=20;indent=5;" vertex="1" parent="k-J_ichgHFrV_qxmjCFs-2">
          <mxGeometry x="18" y="190" width="980" height="430" as="geometry" />
        </mxCell>
        <mxCell id="k-J_ichgHFrV_qxmjCFs-25" value="" style="line;strokeWidth=2;direction=south;html=1;" vertex="1" parent="k-J_ichgHFrV_qxmjCFs-2">
          <mxGeometry x="505" y="250" width="10" height="370" as="geometry" />
        </mxCell>
        <mxCell id="k-J_ichgHFrV_qxmjCFs-27" value="&lt;h2&gt;&lt;font style=&quot;font-size: 16px;&quot;&gt;SectionIntro&lt;/font&gt;&lt;/h2&gt;" style="rounded=0;whiteSpace=wrap;html=1;strokeWidth=2;" vertex="1" parent="k-J_ichgHFrV_qxmjCFs-2">
          <mxGeometry x="18" y="190" width="980" height="60" as="geometry" />
        </mxCell>
        <mxCell id="k-J_ichgHFrV_qxmjCFs-28" value="&lt;font style=&quot;font-size: 16px;&quot;&gt;SectionIntroBgImage&lt;/font&gt;" style="rounded=0;whiteSpace=wrap;html=1;strokeWidth=2;fillColor=#ffe6cc;strokeColor=#d79b00;" vertex="1" parent="k-J_ichgHFrV_qxmjCFs-2">
          <mxGeometry x="18" y="250" width="492" height="370" as="geometry" />
        </mxCell>
        <mxCell id="k-J_ichgHFrV_qxmjCFs-29" style="edgeStyle=orthogonalEdgeStyle;rounded=0;orthogonalLoop=1;jettySize=auto;html=1;exitX=0.5;exitY=1;exitDx=0;exitDy=0;" edge="1" parent="k-J_ichgHFrV_qxmjCFs-2" source="k-J_ichgHFrV_qxmjCFs-28" target="k-J_ichgHFrV_qxmjCFs-28">
          <mxGeometry relative="1" as="geometry" />
        </mxCell>
        <mxCell id="k-J_ichgHFrV_qxmjCFs-411" value="" style="group" vertex="1" connectable="0" parent="k-J_ichgHFrV_qxmjCFs-2">
          <mxGeometry x="530" y="270" width="450" height="340" as="geometry" />
        </mxCell>
        <mxCell id="k-J_ichgHFrV_qxmjCFs-30" value="" style="rounded=0;whiteSpace=wrap;html=1;strokeWidth=2;" vertex="1" parent="k-J_ichgHFrV_qxmjCFs-411">
          <mxGeometry width="450" height="340" as="geometry" />
        </mxCell>
        <mxCell id="k-J_ichgHFrV_qxmjCFs-43" value="" style="group" vertex="1" connectable="0" parent="k-J_ichgHFrV_qxmjCFs-411">
          <mxGeometry x="12" y="104" width="420" height="221" as="geometry" />
        </mxCell>
        <mxCell id="k-J_ichgHFrV_qxmjCFs-31" value="&lt;font style=&quot;font-size: 14px;&quot;&gt;SectionDesc [size=&quot;lg&quot;]&lt;/font&gt;" style="rounded=0;whiteSpace=wrap;html=1;strokeWidth=2;" vertex="1" parent="k-J_ichgHFrV_qxmjCFs-43">
          <mxGeometry x="10" y="101" width="410" height="60" as="geometry" />
        </mxCell>
        <mxCell id="k-J_ichgHFrV_qxmjCFs-38" value="&lt;font style=&quot;font-size: 14px;&quot;&gt;SectionHeader&lt;/font&gt;" style="swimlane;fontStyle=0;childLayout=stackLayout;horizontal=1;startSize=30;horizontalStack=0;resizeParent=1;resizeParentMax=0;resizeLast=0;collapsible=1;marginBottom=0;whiteSpace=wrap;html=1;strokeWidth=2;" vertex="1" parent="k-J_ichgHFrV_qxmjCFs-43">
          <mxGeometry x="10" width="410" height="90" as="geometry" />
        </mxCell>
        <mxCell id="k-J_ichgHFrV_qxmjCFs-39" value="&lt;font style=&quot;font-size: 14px;&quot;&gt;SectionEyebrow&lt;/font&gt;" style="text;strokeColor=none;fillColor=none;align=left;verticalAlign=middle;spacingLeft=4;spacingRight=4;overflow=hidden;points=[[0,0.5],[1,0.5]];portConstraint=eastwest;rotatable=0;whiteSpace=wrap;html=1;" vertex="1" parent="k-J_ichgHFrV_qxmjCFs-38">
          <mxGeometry y="30" width="410" height="30" as="geometry" />
        </mxCell>
        <mxCell id="k-J_ichgHFrV_qxmjCFs-40" value="&lt;font style=&quot;font-size: 14px;&quot;&gt;SectionTitle&lt;/font&gt;" style="text;strokeColor=none;fillColor=none;align=left;verticalAlign=middle;spacingLeft=4;spacingRight=4;overflow=hidden;points=[[0,0.5],[1,0.5]];portConstraint=eastwest;rotatable=0;whiteSpace=wrap;html=1;" vertex="1" parent="k-J_ichgHFrV_qxmjCFs-38">
          <mxGeometry y="60" width="410" height="30" as="geometry" />
        </mxCell>
        <mxCell id="k-J_ichgHFrV_qxmjCFs-407" value="&lt;font style=&quot;font-size: 14px;&quot;&gt;BtnPrimaryOutline [size=&quot;lg&quot;]&lt;/font&gt;" style="html=1;shadow=0;dashed=0;shape=mxgraph.bootstrap.rrect;rSize=5;strokeColor=#0085FC;strokeWidth=2;fillColor=none;fontColor=#0085FC;whiteSpace=wrap;align=center;verticalAlign=middle;spacingLeft=0;fontStyle=0;fontSize=16;spacing=5;" vertex="1" parent="k-J_ichgHFrV_qxmjCFs-411">
          <mxGeometry x="22" y="276" width="208" height="36" as="geometry" />
        </mxCell>
        <mxCell id="k-J_ichgHFrV_qxmjCFs-409" value="&lt;font style=&quot;font-size: 16px;&quot;&gt;&lt;b&gt;SectionIntroContent&lt;/b&gt;&lt;/font&gt;" style="rounded=0;whiteSpace=wrap;html=1;strokeWidth=2;glass=0;container=1;" vertex="1" parent="k-J_ichgHFrV_qxmjCFs-411">
          <mxGeometry width="450" height="40" as="geometry" />
        </mxCell>
        <mxCell id="k-J_ichgHFrV_qxmjCFs-410" value="&lt;font style=&quot;font-size: 14px; font-weight: normal;&quot;&gt;SectionHeaderContainer&lt;/font&gt;" style="swimlane;whiteSpace=wrap;html=1;startSize=40;strokeWidth=2;" vertex="1" parent="k-J_ichgHFrV_qxmjCFs-411">
          <mxGeometry x="12" y="54" width="428" height="270" as="geometry" />
        </mxCell>
        <mxCell id="k-J_ichgHFrV_qxmjCFs-44" value="" style="strokeWidth=1;shadow=0;dashed=0;align=center;html=1;shape=mxgraph.mockup.containers.browserWindow;rSize=0;strokeColor=#666666;strokeColor2=#008cff;strokeColor3=#c4c4c4;mainText=,;recursiveResize=0;" vertex="1" parent="1">
          <mxGeometry x="2150" y="189" width="1020" height="1001" as="geometry" />
        </mxCell>
        <mxCell id="k-J_ichgHFrV_qxmjCFs-45" value="Page 1" style="strokeWidth=1;shadow=0;dashed=0;align=center;html=1;shape=mxgraph.mockup.containers.anchor;fontSize=17;fontColor=#666666;align=left;whiteSpace=wrap;" vertex="1" parent="k-J_ichgHFrV_qxmjCFs-44">
          <mxGeometry x="60" y="12" width="110" height="26" as="geometry" />
        </mxCell>
        <mxCell id="k-J_ichgHFrV_qxmjCFs-46" value="https://www.draw.io" style="strokeWidth=1;shadow=0;dashed=0;align=center;html=1;shape=mxgraph.mockup.containers.anchor;rSize=0;fontSize=17;fontColor=#666666;align=left;" vertex="1" parent="k-J_ichgHFrV_qxmjCFs-44">
          <mxGeometry x="130" y="60" width="250" height="26" as="geometry" />
        </mxCell>
        <mxCell id="k-J_ichgHFrV_qxmjCFs-47" value="" style="rounded=0;whiteSpace=wrap;html=1;strokeWidth=2;" vertex="1" parent="k-J_ichgHFrV_qxmjCFs-44">
          <mxGeometry y="110" width="1020" height="60" as="geometry" />
        </mxCell>
        <mxCell id="k-J_ichgHFrV_qxmjCFs-48" value="" style="group;strokeWidth=2;fillColor=#FFFFFF;strokeColor=#000000;" vertex="1" connectable="0" parent="k-J_ichgHFrV_qxmjCFs-44">
          <mxGeometry x="570" y="120" width="290" height="40" as="geometry" />
        </mxCell>
        <mxCell id="k-J_ichgHFrV_qxmjCFs-49" value="Link" style="html=1;shadow=0;dashed=0;shape=mxgraph.bootstrap.rrect;rSize=5;strokeColor=none;strokeWidth=1;fillColor=none;fontColor=#000000;whiteSpace=wrap;align=center;verticalAlign=middle;spacingLeft=0;fontStyle=0;fontSize=16;spacing=5;fontFamily=Helvetica;" vertex="1" parent="k-J_ichgHFrV_qxmjCFs-48">
          <mxGeometry x="152" y="4" width="60" height="32" as="geometry" />
        </mxCell>
        <mxCell id="k-J_ichgHFrV_qxmjCFs-50" value="Link" style="html=1;shadow=0;dashed=0;shape=mxgraph.bootstrap.rrect;rSize=5;strokeColor=none;strokeWidth=1;fillColor=none;fontColor=#000000;whiteSpace=wrap;align=center;verticalAlign=middle;spacingLeft=0;fontStyle=0;fontSize=16;spacing=5;fontFamily=Helvetica;" vertex="1" parent="k-J_ichgHFrV_qxmjCFs-48">
          <mxGeometry x="225" y="4" width="60" height="32" as="geometry" />
        </mxCell>
        <mxCell id="k-J_ichgHFrV_qxmjCFs-51" value="Link" style="html=1;shadow=0;dashed=0;shape=mxgraph.bootstrap.rrect;rSize=5;strokeColor=none;strokeWidth=1;fillColor=none;fontColor=#000000;whiteSpace=wrap;align=center;verticalAlign=middle;spacingLeft=0;fontStyle=0;fontSize=16;spacing=5;fontFamily=Helvetica;" vertex="1" parent="k-J_ichgHFrV_qxmjCFs-48">
          <mxGeometry x="78" y="4" width="60" height="32" as="geometry" />
        </mxCell>
        <mxCell id="k-J_ichgHFrV_qxmjCFs-52" value="&lt;font&gt;Link&lt;/font&gt;" style="html=1;shadow=0;dashed=0;shape=mxgraph.bootstrap.rrect;rSize=5;strokeColor=none;strokeWidth=1;fillColor=none;fontColor=#000000;whiteSpace=wrap;align=center;verticalAlign=middle;spacingLeft=0;fontStyle=0;fontSize=16;spacing=5;fontFamily=Helvetica;" vertex="1" parent="k-J_ichgHFrV_qxmjCFs-48">
          <mxGeometry x="5" y="4" width="60" height="32" as="geometry" />
        </mxCell>
        <mxCell id="k-J_ichgHFrV_qxmjCFs-53" value="&lt;font style=&quot;font-size: 16px;&quot;&gt;Vanessa Coles&lt;/font&gt;" style="text;strokeColor=none;fillColor=none;align=center;verticalAlign=top;spacingLeft=4;spacingRight=4;overflow=hidden;rotatable=0;points=[[0,0.5],[1,0.5]];portConstraint=eastwest;whiteSpace=wrap;html=1;" vertex="1" parent="k-J_ichgHFrV_qxmjCFs-44">
          <mxGeometry x="41" y="125" width="129" height="26" as="geometry" />
        </mxCell>
        <mxCell id="k-J_ichgHFrV_qxmjCFs-54" value="&lt;font style=&quot;font-size: 14px;&quot;&gt;ThemeSwitcher&lt;/font&gt;" style="rounded=0;whiteSpace=wrap;html=1;strokeWidth=2;" vertex="1" parent="k-J_ichgHFrV_qxmjCFs-44">
          <mxGeometry x="878" y="120" width="120" height="40" as="geometry" />
        </mxCell>
        <mxCell id="k-J_ichgHFrV_qxmjCFs-56" value="" style="verticalLabelPosition=bottom;verticalAlign=top;html=1;shape=mxgraph.basic.rect;fillColor2=none;strokeWidth=2;size=20;indent=5;" vertex="1" parent="k-J_ichgHFrV_qxmjCFs-44">
          <mxGeometry x="20" y="191" width="980" height="789" as="geometry" />
        </mxCell>
        <mxCell id="k-J_ichgHFrV_qxmjCFs-57" value="&lt;h2&gt;&lt;font style=&quot;font-size: 16px;&quot;&gt;SectionPosts&lt;/font&gt;&lt;/h2&gt;" style="rounded=0;whiteSpace=wrap;html=1;strokeWidth=2;" vertex="1" parent="k-J_ichgHFrV_qxmjCFs-44">
          <mxGeometry x="20" y="191" width="980" height="60" as="geometry" />
        </mxCell>
        <mxCell id="k-J_ichgHFrV_qxmjCFs-422" value="" style="group" vertex="1" connectable="0" parent="k-J_ichgHFrV_qxmjCFs-44">
          <mxGeometry x="40" y="560" width="940" height="400" as="geometry" />
        </mxCell>
        <mxCell id="k-J_ichgHFrV_qxmjCFs-65" value="&lt;font style=&quot;font-size: 16px;&quot;&gt;FeaturedPostsList [posts={ posts }]&lt;/font&gt;" style="swimlane;whiteSpace=wrap;html=1;startSize=40;strokeWidth=2;" vertex="1" parent="k-J_ichgHFrV_qxmjCFs-422">
          <mxGeometry width="940" height="400" as="geometry" />
        </mxCell>
        <mxCell id="k-J_ichgHFrV_qxmjCFs-67" value="" style="rounded=0;whiteSpace=wrap;html=1;strokeWidth=2;" vertex="1" parent="k-J_ichgHFrV_qxmjCFs-422">
          <mxGeometry x="15" y="60" width="445" height="320" as="geometry" />
        </mxCell>
        <mxCell id="k-J_ichgHFrV_qxmjCFs-73" value="" style="group" vertex="1" connectable="0" parent="k-J_ichgHFrV_qxmjCFs-422">
          <mxGeometry x="42" y="123" width="390" height="200" as="geometry" />
        </mxCell>
        <mxCell id="k-J_ichgHFrV_qxmjCFs-68" value="&lt;h1 style=&quot;margin-top: 0px;&quot;&gt;&lt;span style=&quot;background-color: initial;&quot;&gt;FeaturedPostTitle&lt;/span&gt;&lt;/h1&gt;&lt;h1 style=&quot;margin-top: 0px;&quot;&gt;&lt;span style=&quot;background-color: initial; font-size: 16px; font-weight: normal;&quot;&gt;Lorem ipsum dolor sit amet, consectetur adipisicing elit, sed do eiusmod tempor incididunt ut labore et dolore magna aliqua.&lt;/span&gt;&lt;br&gt;&lt;/h1&gt;" style="text;html=1;whiteSpace=wrap;overflow=hidden;rounded=0;" vertex="1" parent="k-J_ichgHFrV_qxmjCFs-73">
          <mxGeometry width="390" height="170" as="geometry" />
        </mxCell>
        <mxCell id="k-J_ichgHFrV_qxmjCFs-72" value="&lt;font style=&quot;font-size: 14px;&quot;&gt;BtnSecondaryOutline&lt;/font&gt;" style="html=1;shadow=0;dashed=0;shape=mxgraph.bootstrap.rrect;rSize=5;strokeColor=#6C767D;strokeWidth=2;fillColor=none;fontColor=#6C767D;whiteSpace=wrap;align=center;verticalAlign=middle;spacingLeft=0;fontStyle=0;fontSize=16;spacing=5;" vertex="1" parent="k-J_ichgHFrV_qxmjCFs-73">
          <mxGeometry y="160" width="160" height="36" as="geometry" />
        </mxCell>
        <mxCell id="k-J_ichgHFrV_qxmjCFs-75" value="" style="group" vertex="1" connectable="0" parent="k-J_ichgHFrV_qxmjCFs-422">
          <mxGeometry x="482" y="63" width="220" height="140" as="geometry" />
        </mxCell>
        <mxCell id="k-J_ichgHFrV_qxmjCFs-70" value="&lt;h3 style=&quot;margin-top: 0px;&quot;&gt;&lt;font style=&quot;font-size: 16px;&quot;&gt;FeaturedPostTitle&lt;/font&gt;&lt;/h3&gt;&lt;p style=&quot;line-height: 180%;&quot;&gt;&lt;font style=&quot;font-size: 14px;&quot;&gt;FeaturedPostText. Lorem ipsum dolor sit amet, consectetur.&lt;/font&gt;&lt;/p&gt;" style="text;html=1;whiteSpace=wrap;overflow=hidden;rounded=0;" vertex="1" parent="k-J_ichgHFrV_qxmjCFs-75">
          <mxGeometry width="220" height="90" as="geometry" />
        </mxCell>
        <mxCell id="k-J_ichgHFrV_qxmjCFs-74" value="&lt;font style=&quot;font-size: 14px;&quot;&gt;BtnPostLink&lt;/font&gt;" style="html=1;shadow=0;dashed=0;shape=mxgraph.bootstrap.rrect;rSize=5;strokeColor=#6C767D;strokeWidth=2;fillColor=none;fontColor=#6C767D;whiteSpace=wrap;align=center;verticalAlign=middle;spacingLeft=0;fontStyle=0;fontSize=16;spacing=5;" vertex="1" parent="k-J_ichgHFrV_qxmjCFs-75">
          <mxGeometry x="2" y="102" width="100" height="30" as="geometry" />
        </mxCell>
        <mxCell id="k-J_ichgHFrV_qxmjCFs-122" value="" style="rounded=0;whiteSpace=wrap;html=1;strokeWidth=2;" vertex="1" parent="k-J_ichgHFrV_qxmjCFs-422">
          <mxGeometry x="690" y="50" width="240" height="160" as="geometry" />
        </mxCell>
        <mxCell id="k-J_ichgHFrV_qxmjCFs-76" value="" style="group" vertex="1" connectable="0" parent="k-J_ichgHFrV_qxmjCFs-422">
          <mxGeometry x="701" y="62" width="220" height="132" as="geometry" />
        </mxCell>
        <mxCell id="k-J_ichgHFrV_qxmjCFs-77" value="&lt;h3 style=&quot;margin-top: 0px;&quot;&gt;&lt;font style=&quot;font-size: 16px;&quot;&gt;FeaturedPostTitle&lt;/font&gt;&lt;/h3&gt;&lt;p style=&quot;line-height: 180%;&quot;&gt;&lt;font style=&quot;font-size: 14px;&quot;&gt;FeaturedPostText. Lorem ipsum dolor sit amet, consectetur.&lt;/font&gt;&lt;/p&gt;" style="text;html=1;whiteSpace=wrap;overflow=hidden;rounded=0;" vertex="1" parent="k-J_ichgHFrV_qxmjCFs-76">
          <mxGeometry width="220" height="90" as="geometry" />
        </mxCell>
        <mxCell id="k-J_ichgHFrV_qxmjCFs-78" value="&lt;font style=&quot;font-size: 14px;&quot;&gt;BtnPostLink&lt;/font&gt;" style="html=1;shadow=0;dashed=0;shape=mxgraph.bootstrap.rrect;rSize=5;strokeColor=#6C767D;strokeWidth=2;fillColor=none;fontColor=#6C767D;whiteSpace=wrap;align=center;verticalAlign=middle;spacingLeft=0;fontStyle=0;fontSize=16;spacing=5;" vertex="1" parent="k-J_ichgHFrV_qxmjCFs-76">
          <mxGeometry x="2" y="102" width="100" height="30" as="geometry" />
        </mxCell>
        <mxCell id="k-J_ichgHFrV_qxmjCFs-434" value="" style="group" vertex="1" connectable="0" parent="k-J_ichgHFrV_qxmjCFs-44">
          <mxGeometry x="40" y="267" width="725" height="271" as="geometry" />
        </mxCell>
        <mxCell id="k-J_ichgHFrV_qxmjCFs-413" value="" style="group" vertex="1" connectable="0" parent="k-J_ichgHFrV_qxmjCFs-434">
          <mxGeometry y="50" width="420" height="221" as="geometry" />
        </mxCell>
        <mxCell id="k-J_ichgHFrV_qxmjCFs-414" value="&lt;font style=&quot;font-size: 14px;&quot;&gt;SectionDesc&lt;/font&gt;" style="rounded=0;whiteSpace=wrap;html=1;strokeWidth=2;" vertex="1" parent="k-J_ichgHFrV_qxmjCFs-413">
          <mxGeometry x="10" y="101" width="410" height="60" as="geometry" />
        </mxCell>
        <mxCell id="k-J_ichgHFrV_qxmjCFs-415" value="&lt;font style=&quot;font-size: 14px;&quot;&gt;SectionHeader&lt;/font&gt;" style="swimlane;fontStyle=0;childLayout=stackLayout;horizontal=1;startSize=30;horizontalStack=0;resizeParent=1;resizeParentMax=0;resizeLast=0;collapsible=1;marginBottom=0;whiteSpace=wrap;html=1;strokeWidth=2;" vertex="1" parent="k-J_ichgHFrV_qxmjCFs-413">
          <mxGeometry x="10" width="410" height="90" as="geometry" />
        </mxCell>
        <mxCell id="k-J_ichgHFrV_qxmjCFs-416" value="&lt;font style=&quot;font-size: 14px;&quot;&gt;SectionEyebrow&lt;/font&gt;" style="text;strokeColor=none;fillColor=none;align=left;verticalAlign=middle;spacingLeft=4;spacingRight=4;overflow=hidden;points=[[0,0.5],[1,0.5]];portConstraint=eastwest;rotatable=0;whiteSpace=wrap;html=1;" vertex="1" parent="k-J_ichgHFrV_qxmjCFs-415">
          <mxGeometry y="30" width="410" height="30" as="geometry" />
        </mxCell>
        <mxCell id="k-J_ichgHFrV_qxmjCFs-417" value="&lt;font style=&quot;font-size: 14px;&quot;&gt;SectionTitle&lt;/font&gt;" style="text;strokeColor=none;fillColor=none;align=left;verticalAlign=middle;spacingLeft=4;spacingRight=4;overflow=hidden;points=[[0,0.5],[1,0.5]];portConstraint=eastwest;rotatable=0;whiteSpace=wrap;html=1;" vertex="1" parent="k-J_ichgHFrV_qxmjCFs-415">
          <mxGeometry y="60" width="410" height="30" as="geometry" />
        </mxCell>
        <mxCell id="k-J_ichgHFrV_qxmjCFs-419" value="&lt;font style=&quot;font-size: 14px;&quot;&gt;SectionHeaderContainer&lt;/font&gt;" style="swimlane;whiteSpace=wrap;html=1;startSize=40;strokeWidth=2;" vertex="1" parent="k-J_ichgHFrV_qxmjCFs-434">
          <mxGeometry width="428" height="270" as="geometry" />
        </mxCell>
        <mxCell id="k-J_ichgHFrV_qxmjCFs-426" style="edgeStyle=orthogonalEdgeStyle;rounded=0;orthogonalLoop=1;jettySize=auto;html=1;entryX=0;entryY=0.25;entryDx=0;entryDy=0;" edge="1" parent="k-J_ichgHFrV_qxmjCFs-434" source="k-J_ichgHFrV_qxmjCFs-423" target="k-J_ichgHFrV_qxmjCFs-424">
          <mxGeometry relative="1" as="geometry" />
        </mxCell>
        <mxCell id="k-J_ichgHFrV_qxmjCFs-423" value="&lt;font style=&quot;font-size: 14px;&quot;&gt;BtnPrimary (Optional)&lt;/font&gt;" style="html=1;shadow=0;dashed=0;shape=mxgraph.bootstrap.rrect;rSize=5;strokeColor=none;strokeWidth=1;fillColor=#0085FC;fontColor=#FFFFFF;whiteSpace=wrap;align=center;verticalAlign=middle;spacingLeft=0;fontStyle=0;fontSize=16;spacing=5;" vertex="1" parent="k-J_ichgHFrV_qxmjCFs-434">
          <mxGeometry x="9" y="220" width="166" height="36" as="geometry" />
        </mxCell>
        <mxCell id="k-J_ichgHFrV_qxmjCFs-424" value="BtnPrimary [component=&quot;BtnFeaturedCta&quot;]" style="swimlane;whiteSpace=wrap;html=1;startSize=30;strokeWidth=2;" vertex="1" parent="k-J_ichgHFrV_qxmjCFs-434">
          <mxGeometry x="445" y="204" width="280" height="59" as="geometry" />
        </mxCell>
        <mxCell id="k-J_ichgHFrV_qxmjCFs-55" value="" style="group" vertex="1" connectable="0" parent="1">
          <mxGeometry x="60" y="380" width="980" height="340" as="geometry" />
        </mxCell>
        <mxCell id="GyT0Gai-QQJEyU2q_moY-18" value="" style="verticalLabelPosition=bottom;verticalAlign=top;html=1;shape=mxgraph.basic.rect;fillColor2=none;strokeWidth=2;size=20;indent=5;" vertex="1" parent="k-J_ichgHFrV_qxmjCFs-55">
          <mxGeometry width="980" height="340" as="geometry" />
        </mxCell>
        <mxCell id="GyT0Gai-QQJEyU2q_moY-30" value="" style="group" vertex="1" connectable="0" parent="k-J_ichgHFrV_qxmjCFs-55">
          <mxGeometry x="388" y="269" width="205" height="50" as="geometry" />
        </mxCell>
        <mxCell id="GyT0Gai-QQJEyU2q_moY-20" value="" style="rounded=0;whiteSpace=wrap;html=1;strokeWidth=2;" vertex="1" parent="GyT0Gai-QQJEyU2q_moY-30">
          <mxGeometry y="-30" width="205" height="80" as="geometry" />
        </mxCell>
        <mxCell id="GyT0Gai-QQJEyU2q_moY-26" value="" style="group" vertex="1" connectable="0" parent="GyT0Gai-QQJEyU2q_moY-30">
          <mxGeometry x="30" y="10" width="170" height="30" as="geometry" />
        </mxCell>
        <mxCell id="GyT0Gai-QQJEyU2q_moY-29" value="" style="group" vertex="1" connectable="0" parent="GyT0Gai-QQJEyU2q_moY-26">
          <mxGeometry x="31" width="134" height="32" as="geometry" />
        </mxCell>
        <mxCell id="GyT0Gai-QQJEyU2q_moY-23" value="" style="whiteSpace=wrap;html=1;aspect=fixed;strokeWidth=2;" vertex="1" parent="GyT0Gai-QQJEyU2q_moY-29">
          <mxGeometry width="32" height="32" as="geometry" />
        </mxCell>
        <mxCell id="GyT0Gai-QQJEyU2q_moY-24" value="" style="whiteSpace=wrap;html=1;aspect=fixed;strokeWidth=2;" vertex="1" parent="GyT0Gai-QQJEyU2q_moY-29">
          <mxGeometry x="51" width="32" height="32" as="geometry" />
        </mxCell>
        <mxCell id="GyT0Gai-QQJEyU2q_moY-25" value="" style="whiteSpace=wrap;html=1;aspect=fixed;strokeWidth=2;" vertex="1" parent="GyT0Gai-QQJEyU2q_moY-29">
          <mxGeometry x="102" width="32" height="32" as="geometry" />
        </mxCell>
        <mxCell id="GyT0Gai-QQJEyU2q_moY-22" value="" style="whiteSpace=wrap;html=1;aspect=fixed;strokeWidth=2;" vertex="1" parent="GyT0Gai-QQJEyU2q_moY-30">
          <mxGeometry x="10" y="10" width="32" height="32" as="geometry" />
        </mxCell>
        <mxCell id="GyT0Gai-QQJEyU2q_moY-32" value="&lt;span style=&quot;font-size: 14px;&quot;&gt;SocialIconButtons&lt;/span&gt;" style="text;html=1;align=center;verticalAlign=middle;whiteSpace=wrap;rounded=0;" vertex="1" parent="GyT0Gai-QQJEyU2q_moY-30">
          <mxGeometry x="10" y="-30" width="190" height="30" as="geometry" />
        </mxCell>
        <mxCell id="GyT0Gai-QQJEyU2q_moY-33" value="&lt;font style=&quot;font-size: 14px;&quot;&gt;UnderConstructionMsg&lt;/font&gt;" style="rounded=0;whiteSpace=wrap;html=1;strokeWidth=2;" vertex="1" parent="k-J_ichgHFrV_qxmjCFs-55">
          <mxGeometry x="305" y="160" width="370" height="60" as="geometry" />
        </mxCell>
        <mxCell id="GyT0Gai-QQJEyU2q_moY-37" value="&lt;font style=&quot;font-size: 18px;&quot;&gt;SiteIntro&lt;/font&gt;" style="rounded=0;whiteSpace=wrap;html=1;strokeWidth=2;" vertex="1" parent="k-J_ichgHFrV_qxmjCFs-55">
          <mxGeometry x="200" y="20" width="580" height="120" as="geometry" />
        </mxCell>
        <UserObject label="PostLink" link="https://www.draw.io" id="k-J_ichgHFrV_qxmjCFs-96">
          <mxCell style="text;html=1;strokeColor=none;fillColor=none;whiteSpace=wrap;align=left;verticalAlign=middle;fontColor=#0000EE;fontStyle=4;spacing=2;" vertex="1" parent="1">
            <mxGeometry x="2671.9999999999995" y="1009" width="60" height="40" as="geometry" />
          </mxCell>
        </UserObject>
        <mxCell id="k-J_ichgHFrV_qxmjCFs-97" value="" style="group" vertex="1" connectable="0" parent="1">
          <mxGeometry x="2669.9999999999995" y="970" width="215" height="53" as="geometry" />
        </mxCell>
        <mxCell id="k-J_ichgHFrV_qxmjCFs-98" value="&lt;span&gt;&lt;font style=&quot;font-size: 13px;&quot;&gt;&lt;b&gt;FeaturedPostTitle&lt;/b&gt;&lt;/font&gt;&lt;/span&gt;" style="text;html=1;align=left;verticalAlign=middle;whiteSpace=wrap;rounded=0;fontSize=14;fontStyle=0" vertex="1" parent="k-J_ichgHFrV_qxmjCFs-97">
          <mxGeometry width="215" height="30" as="geometry" />
        </mxCell>
        <mxCell id="k-J_ichgHFrV_qxmjCFs-99" value="&lt;font style=&quot;font-size: 13px;&quot;&gt;FeaturedPostText. Lorem ipsum.&lt;/font&gt;" style="text;html=1;align=left;verticalAlign=middle;whiteSpace=wrap;rounded=0;fontSize=12;" vertex="1" parent="k-J_ichgHFrV_qxmjCFs-97">
          <mxGeometry y="20" width="215" height="33" as="geometry" />
        </mxCell>
        <UserObject label="PostLink" link="https://www.draw.io" id="k-J_ichgHFrV_qxmjCFs-100">
          <mxCell style="text;html=1;strokeColor=none;fillColor=none;whiteSpace=wrap;align=left;verticalAlign=middle;fontColor=#0000EE;fontStyle=4;spacing=2;" vertex="1" parent="1">
            <mxGeometry x="2890.9999999999995" y="1008" width="60" height="40" as="geometry" />
          </mxCell>
        </UserObject>
        <mxCell id="k-J_ichgHFrV_qxmjCFs-101" value="" style="group" vertex="1" connectable="0" parent="1">
          <mxGeometry x="2888.9999999999995" y="969" width="215" height="53" as="geometry" />
        </mxCell>
        <mxCell id="k-J_ichgHFrV_qxmjCFs-102" value="&lt;span&gt;&lt;font style=&quot;font-size: 13px;&quot;&gt;&lt;b&gt;FeaturedPostTitle&lt;/b&gt;&lt;/font&gt;&lt;/span&gt;" style="text;html=1;align=left;verticalAlign=middle;whiteSpace=wrap;rounded=0;fontSize=14;fontStyle=0" vertex="1" parent="k-J_ichgHFrV_qxmjCFs-101">
          <mxGeometry width="215" height="30" as="geometry" />
        </mxCell>
        <mxCell id="k-J_ichgHFrV_qxmjCFs-103" value="&lt;font style=&quot;font-size: 13px;&quot;&gt;FeaturedPostText. Lorem ipsum.&lt;/font&gt;" style="text;html=1;align=left;verticalAlign=middle;whiteSpace=wrap;rounded=0;fontSize=12;" vertex="1" parent="k-J_ichgHFrV_qxmjCFs-101">
          <mxGeometry y="20" width="215" height="33" as="geometry" />
        </mxCell>
        <UserObject label="PostLink" link="https://www.draw.io" id="k-J_ichgHFrV_qxmjCFs-104">
          <mxCell style="text;html=1;strokeColor=none;fillColor=none;whiteSpace=wrap;align=left;verticalAlign=middle;fontColor=#0000EE;fontStyle=4;spacing=2;" vertex="1" parent="1">
            <mxGeometry x="2670.9999999999995" y="1094" width="60" height="40" as="geometry" />
          </mxCell>
        </UserObject>
        <mxCell id="k-J_ichgHFrV_qxmjCFs-105" value="" style="group" vertex="1" connectable="0" parent="1">
          <mxGeometry x="2668.9999999999995" y="1055" width="215" height="53" as="geometry" />
        </mxCell>
        <mxCell id="k-J_ichgHFrV_qxmjCFs-106" value="&lt;span&gt;&lt;font style=&quot;font-size: 13px;&quot;&gt;&lt;b&gt;FeaturedPostTitle&lt;/b&gt;&lt;/font&gt;&lt;/span&gt;" style="text;html=1;align=left;verticalAlign=middle;whiteSpace=wrap;rounded=0;fontSize=14;fontStyle=0" vertex="1" parent="k-J_ichgHFrV_qxmjCFs-105">
          <mxGeometry width="215" height="30" as="geometry" />
        </mxCell>
        <mxCell id="k-J_ichgHFrV_qxmjCFs-107" value="&lt;font style=&quot;font-size: 13px;&quot;&gt;FeaturedPostText. Lorem ipsum.&lt;/font&gt;" style="text;html=1;align=left;verticalAlign=middle;whiteSpace=wrap;rounded=0;fontSize=12;" vertex="1" parent="k-J_ichgHFrV_qxmjCFs-105">
          <mxGeometry y="20" width="215" height="33" as="geometry" />
        </mxCell>
        <mxCell id="k-J_ichgHFrV_qxmjCFs-108" value="" style="group" vertex="1" connectable="0" parent="1">
          <mxGeometry x="2888.9999999999995" y="1055" width="227.50000000000045" height="85" as="geometry" />
        </mxCell>
        <mxCell id="k-J_ichgHFrV_qxmjCFs-133" value="" style="rounded=0;whiteSpace=wrap;html=1;strokeWidth=2;" vertex="1" parent="k-J_ichgHFrV_qxmjCFs-108">
          <mxGeometry x="-12.5" y="-3" width="240" height="85" as="geometry" />
        </mxCell>
        <mxCell id="k-J_ichgHFrV_qxmjCFs-109" value="&lt;span&gt;&lt;font style=&quot;font-size: 13px;&quot;&gt;&lt;b&gt;FeaturedPostTitle&lt;/b&gt;&lt;/font&gt;&lt;/span&gt;" style="text;html=1;align=left;verticalAlign=middle;whiteSpace=wrap;rounded=0;fontSize=14;fontStyle=0" vertex="1" parent="k-J_ichgHFrV_qxmjCFs-108">
          <mxGeometry width="215" height="30" as="geometry" />
        </mxCell>
        <mxCell id="k-J_ichgHFrV_qxmjCFs-110" value="&lt;font style=&quot;font-size: 13px;&quot;&gt;FeaturedPostText. Lorem ipsum.&lt;/font&gt;" style="text;html=1;align=left;verticalAlign=middle;whiteSpace=wrap;rounded=0;fontSize=12;" vertex="1" parent="k-J_ichgHFrV_qxmjCFs-108">
          <mxGeometry y="20" width="215" height="33" as="geometry" />
        </mxCell>
        <UserObject label="PostLink" link="https://www.draw.io" id="k-J_ichgHFrV_qxmjCFs-111">
          <mxCell style="text;html=1;strokeColor=none;fillColor=none;whiteSpace=wrap;align=left;verticalAlign=middle;fontColor=#0000EE;fontStyle=4;spacing=2;" vertex="1" parent="1">
            <mxGeometry x="2890.9999999999995" y="1094" width="60" height="40" as="geometry" />
          </mxCell>
        </UserObject>
        <mxCell id="k-J_ichgHFrV_qxmjCFs-112" value="&lt;font style=&quot;font-size: 14px;&quot;&gt;PrimaryButton&lt;/font&gt;" style="html=1;shadow=0;dashed=0;shape=mxgraph.bootstrap.rrect;rSize=5;strokeColor=none;strokeWidth=1;fillColor=#0085FC;fontColor=#FFFFFF;whiteSpace=wrap;align=center;verticalAlign=middle;spacingLeft=0;fontStyle=0;fontSize=16;spacing=5;" vertex="1" parent="1">
          <mxGeometry x="47" y="30" width="140" height="50" as="geometry" />
        </mxCell>
        <mxCell id="k-J_ichgHFrV_qxmjCFs-113" value="&lt;font style=&quot;font-size: 14px;&quot;&gt;SecondaryButton&lt;/font&gt;" style="html=1;shadow=0;dashed=0;shape=mxgraph.bootstrap.rrect;rSize=5;strokeColor=#6C767D;strokeWidth=1;fillColor=none;fontColor=#6C767D;whiteSpace=wrap;align=center;verticalAlign=middle;spacingLeft=0;fontStyle=0;fontSize=16;spacing=5;" vertex="1" parent="1">
          <mxGeometry x="217" y="30" width="150" height="50" as="geometry" />
        </mxCell>
        <UserObject label="Link" link="https://www.draw.io" id="k-J_ichgHFrV_qxmjCFs-114">
          <mxCell style="text;html=1;strokeColor=none;fillColor=none;whiteSpace=wrap;align=center;verticalAlign=middle;fontColor=#0000EE;fontStyle=4;" vertex="1" parent="1">
            <mxGeometry x="516" y="34" width="60" height="40" as="geometry" />
          </mxCell>
        </UserObject>
        <mxCell id="k-J_ichgHFrV_qxmjCFs-115" value="&lt;font style=&quot;font-size: 14px;&quot;&gt;Link button&lt;/font&gt;" style="fillColor=none;strokeColor=none;html=1;fontColor=#0057D8;align=center;verticalAlign=middle;fontStyle=0;fontSize=12" vertex="1" parent="1">
          <mxGeometry x="397" y="38.5" width="86" height="33" as="geometry" />
        </mxCell>
        <mxCell id="k-J_ichgHFrV_qxmjCFs-116" value="Homepage - SiteIntro" style="text;strokeColor=none;fillColor=none;html=1;fontSize=24;fontStyle=1;verticalAlign=middle;align=left;" vertex="1" parent="1">
          <mxGeometry x="40" y="120" width="250" height="40" as="geometry" />
        </mxCell>
        <mxCell id="k-J_ichgHFrV_qxmjCFs-117" value="Homepage - SectionIntro" style="text;strokeColor=none;fillColor=none;html=1;fontSize=24;fontStyle=1;verticalAlign=middle;align=left;" vertex="1" parent="1">
          <mxGeometry x="1095" y="120" width="285" height="40" as="geometry" />
        </mxCell>
        <mxCell id="k-J_ichgHFrV_qxmjCFs-118" value="Homepage - SectionPosts" style="text;strokeColor=none;fillColor=none;html=1;fontSize=24;fontStyle=1;verticalAlign=middle;align=left;" vertex="1" parent="1">
          <mxGeometry x="2152" y="120" width="298" height="40" as="geometry" />
        </mxCell>
        <mxCell id="k-J_ichgHFrV_qxmjCFs-127" value="" style="edgeStyle=orthogonalEdgeStyle;rounded=0;orthogonalLoop=1;jettySize=auto;html=1;" edge="1" parent="1" source="k-J_ichgHFrV_qxmjCFs-122" target="k-J_ichgHFrV_qxmjCFs-128">
          <mxGeometry relative="1" as="geometry">
            <mxPoint x="3200" y="849" as="targetPoint" />
          </mxGeometry>
        </mxCell>
        <mxCell id="k-J_ichgHFrV_qxmjCFs-128" value="&lt;font style=&quot;font-size: 14px;&quot;&gt;FeaturedPost [type=&quot;default&quot;]&lt;/font&gt;" style="swimlane;whiteSpace=wrap;html=1;startSize=40;strokeWidth=2;" vertex="1" parent="1">
          <mxGeometry x="3200" y="505" width="320" height="235" as="geometry" />
        </mxCell>
        <mxCell id="k-J_ichgHFrV_qxmjCFs-486" value="" style="group" vertex="1" connectable="0" parent="k-J_ichgHFrV_qxmjCFs-128">
          <mxGeometry x="10" y="56" width="300" height="164" as="geometry" />
        </mxCell>
        <mxCell id="k-J_ichgHFrV_qxmjCFs-487" value="&lt;font style=&quot;font-size: 14px;&quot;&gt;&lt;b&gt;Article&amp;nbsp;&lt;/b&gt;&lt;/font&gt;" style="rounded=0;whiteSpace=wrap;html=1;strokeWidth=2;glass=0;container=1;align=center;" vertex="1" parent="k-J_ichgHFrV_qxmjCFs-486">
          <mxGeometry width="300" height="44.5" as="geometry">
            <mxRectangle x="10" y="52.5" width="90" height="30" as="alternateBounds" />
          </mxGeometry>
        </mxCell>
        <mxCell id="k-J_ichgHFrV_qxmjCFs-488" value="&lt;font style=&quot;font-size: 14px;&quot;&gt;Heading [size=4]&lt;/font&gt;" style="rounded=0;whiteSpace=wrap;html=1;strokeWidth=2;align=center;" vertex="1" parent="k-J_ichgHFrV_qxmjCFs-486">
          <mxGeometry y="44" width="300" height="40" as="geometry" />
        </mxCell>
        <mxCell id="k-J_ichgHFrV_qxmjCFs-489" value="&lt;font style=&quot;font-size: 14px;&quot;&gt;P&lt;/font&gt;" style="rounded=0;whiteSpace=wrap;html=1;strokeWidth=2;align=center;" vertex="1" parent="k-J_ichgHFrV_qxmjCFs-486">
          <mxGeometry y="84" width="300" height="40" as="geometry" />
        </mxCell>
        <mxCell id="k-J_ichgHFrV_qxmjCFs-490" value="&lt;font style=&quot;font-size: 14px;&quot;&gt;BtnSecondaryOutline [icon={ icon } size=&quot;sm&quot;]&lt;/font&gt;" style="rounded=0;whiteSpace=wrap;html=1;strokeWidth=2;align=center;" vertex="1" parent="k-J_ichgHFrV_qxmjCFs-486">
          <mxGeometry y="124" width="300" height="40" as="geometry" />
        </mxCell>
        <mxCell id="k-J_ichgHFrV_qxmjCFs-131" value="" style="edgeStyle=orthogonalEdgeStyle;rounded=0;orthogonalLoop=1;jettySize=auto;html=1;" edge="1" parent="1" source="k-J_ichgHFrV_qxmjCFs-67" target="k-J_ichgHFrV_qxmjCFs-132">
          <mxGeometry relative="1" as="geometry">
            <mxPoint x="3280" y="600" as="targetPoint" />
            <Array as="points">
              <mxPoint x="2935" y="969" />
              <mxPoint x="2935" y="950" />
            </Array>
          </mxGeometry>
        </mxCell>
        <mxCell id="k-J_ichgHFrV_qxmjCFs-132" value="&lt;font style=&quot;font-size: 14px;&quot;&gt;FeaturedPost [type=&quot;spotlight&quot;]&lt;/font&gt;" style="swimlane;whiteSpace=wrap;html=1;startSize=40;strokeWidth=2;" vertex="1" parent="1">
          <mxGeometry x="3200" y="850" width="320" height="230" as="geometry" />
        </mxCell>
        <mxCell id="k-J_ichgHFrV_qxmjCFs-485" value="" style="group" vertex="1" connectable="0" parent="k-J_ichgHFrV_qxmjCFs-132">
          <mxGeometry x="10" y="52.5" width="300" height="164" as="geometry" />
        </mxCell>
        <mxCell id="k-J_ichgHFrV_qxmjCFs-481" value="&lt;font style=&quot;font-size: 14px;&quot;&gt;&lt;b&gt;Article&amp;nbsp;&lt;/b&gt;&lt;/font&gt;" style="rounded=0;whiteSpace=wrap;html=1;strokeWidth=2;glass=0;container=1;align=center;" vertex="1" parent="k-J_ichgHFrV_qxmjCFs-485">
          <mxGeometry width="300" height="44.5" as="geometry">
            <mxRectangle x="10" y="52.5" width="90" height="30" as="alternateBounds" />
          </mxGeometry>
        </mxCell>
        <mxCell id="k-J_ichgHFrV_qxmjCFs-482" value="&lt;font style=&quot;font-size: 14px;&quot;&gt;Heading [size=3]&lt;/font&gt;" style="rounded=0;whiteSpace=wrap;html=1;strokeWidth=2;align=center;" vertex="1" parent="k-J_ichgHFrV_qxmjCFs-485">
          <mxGeometry y="44" width="300" height="40" as="geometry" />
        </mxCell>
        <mxCell id="k-J_ichgHFrV_qxmjCFs-483" value="&lt;font style=&quot;font-size: 14px;&quot;&gt;P [size=&quot;lg&quot;]&lt;/font&gt;" style="rounded=0;whiteSpace=wrap;html=1;strokeWidth=2;align=center;" vertex="1" parent="k-J_ichgHFrV_qxmjCFs-485">
          <mxGeometry y="84" width="300" height="40" as="geometry" />
        </mxCell>
        <mxCell id="k-J_ichgHFrV_qxmjCFs-484" value="&lt;font style=&quot;font-size: 14px;&quot;&gt;BtnSecondaryOutline [icon={ icon }]&lt;/font&gt;" style="rounded=0;whiteSpace=wrap;html=1;strokeWidth=2;align=center;" vertex="1" parent="k-J_ichgHFrV_qxmjCFs-485">
          <mxGeometry y="124" width="300" height="40" as="geometry" />
        </mxCell>
        <mxCell id="k-J_ichgHFrV_qxmjCFs-135" value="&lt;font style=&quot;font-size: 14px;&quot;&gt;FeaturedPost [type=&quot;small&quot;]&lt;/font&gt;" style="swimlane;whiteSpace=wrap;html=1;startSize=40;strokeWidth=2;" vertex="1" parent="1">
          <mxGeometry x="3220" y="1100" width="300" height="270" as="geometry" />
        </mxCell>
        <mxCell id="k-J_ichgHFrV_qxmjCFs-491" value="" style="group" vertex="1" connectable="0" parent="k-J_ichgHFrV_qxmjCFs-135">
          <mxGeometry x="10" y="53" width="280" height="164" as="geometry" />
        </mxCell>
        <mxCell id="k-J_ichgHFrV_qxmjCFs-492" value="&lt;font style=&quot;font-size: 14px;&quot;&gt;&lt;b&gt;Article&amp;nbsp;&lt;/b&gt;&lt;/font&gt;" style="rounded=0;whiteSpace=wrap;html=1;strokeWidth=2;glass=0;container=1;align=center;" vertex="1" parent="k-J_ichgHFrV_qxmjCFs-491">
          <mxGeometry width="280" height="44.5" as="geometry">
            <mxRectangle x="10" y="52.5" width="90" height="30" as="alternateBounds" />
          </mxGeometry>
        </mxCell>
        <mxCell id="k-J_ichgHFrV_qxmjCFs-493" value="&lt;font style=&quot;font-size: 14px;&quot;&gt;Heading [size=5]&lt;/font&gt;" style="rounded=0;whiteSpace=wrap;html=1;strokeWidth=2;align=center;" vertex="1" parent="k-J_ichgHFrV_qxmjCFs-491">
          <mxGeometry y="44" width="280" height="40" as="geometry" />
        </mxCell>
        <mxCell id="k-J_ichgHFrV_qxmjCFs-494" value="&lt;font style=&quot;font-size: 14px;&quot;&gt;P [size=&quot;sm&quot;]&lt;/font&gt;" style="rounded=0;whiteSpace=wrap;html=1;strokeWidth=2;align=center;" vertex="1" parent="k-J_ichgHFrV_qxmjCFs-491">
          <mxGeometry y="84" width="280" height="40" as="geometry" />
        </mxCell>
        <mxCell id="k-J_ichgHFrV_qxmjCFs-495" value="&lt;span style=&quot;font-size: 14px;&quot;&gt;Link [icon={ icon } size=&quot;sm&quot;]&lt;/span&gt;" style="rounded=0;whiteSpace=wrap;html=1;strokeWidth=2;align=center;" vertex="1" parent="k-J_ichgHFrV_qxmjCFs-491">
          <mxGeometry y="124" width="280" height="40" as="geometry" />
        </mxCell>
        <mxCell id="k-J_ichgHFrV_qxmjCFs-136" style="edgeStyle=orthogonalEdgeStyle;rounded=0;orthogonalLoop=1;jettySize=auto;html=1;" edge="1" parent="1" source="k-J_ichgHFrV_qxmjCFs-110" target="k-J_ichgHFrV_qxmjCFs-135">
          <mxGeometry relative="1" as="geometry">
            <Array as="points">
              <mxPoint x="3190" y="1091" />
              <mxPoint x="3190" y="1130" />
            </Array>
          </mxGeometry>
        </mxCell>
        <mxCell id="k-J_ichgHFrV_qxmjCFs-137" value="Homepage - SectionProjects" style="text;strokeColor=none;fillColor=none;html=1;fontSize=24;fontStyle=1;verticalAlign=middle;align=left;" vertex="1" parent="1">
          <mxGeometry x="3532" y="119" width="328" height="40" as="geometry" />
        </mxCell>
        <mxCell id="k-J_ichgHFrV_qxmjCFs-138" value="" style="strokeWidth=1;shadow=0;dashed=0;align=center;html=1;shape=mxgraph.mockup.containers.browserWindow;rSize=0;strokeColor=#666666;strokeColor2=#008cff;strokeColor3=#c4c4c4;mainText=,;recursiveResize=0;" vertex="1" parent="1">
          <mxGeometry x="3530" y="188" width="1020" height="1222" as="geometry" />
        </mxCell>
        <mxCell id="k-J_ichgHFrV_qxmjCFs-139" value="Page 1" style="strokeWidth=1;shadow=0;dashed=0;align=center;html=1;shape=mxgraph.mockup.containers.anchor;fontSize=17;fontColor=#666666;align=left;whiteSpace=wrap;" vertex="1" parent="k-J_ichgHFrV_qxmjCFs-138">
          <mxGeometry x="60" y="12" width="110" height="26" as="geometry" />
        </mxCell>
        <mxCell id="k-J_ichgHFrV_qxmjCFs-140" value="https://www.draw.io" style="strokeWidth=1;shadow=0;dashed=0;align=center;html=1;shape=mxgraph.mockup.containers.anchor;rSize=0;fontSize=17;fontColor=#666666;align=left;" vertex="1" parent="k-J_ichgHFrV_qxmjCFs-138">
          <mxGeometry x="130" y="60" width="250" height="26" as="geometry" />
        </mxCell>
        <mxCell id="k-J_ichgHFrV_qxmjCFs-141" value="" style="rounded=0;whiteSpace=wrap;html=1;strokeWidth=2;" vertex="1" parent="k-J_ichgHFrV_qxmjCFs-138">
          <mxGeometry y="110" width="1020" height="60" as="geometry" />
        </mxCell>
        <mxCell id="k-J_ichgHFrV_qxmjCFs-142" value="" style="group;strokeWidth=2;fillColor=#FFFFFF;strokeColor=#000000;" vertex="1" connectable="0" parent="k-J_ichgHFrV_qxmjCFs-138">
          <mxGeometry x="570" y="120" width="290" height="40" as="geometry" />
        </mxCell>
        <mxCell id="k-J_ichgHFrV_qxmjCFs-143" value="Link" style="html=1;shadow=0;dashed=0;shape=mxgraph.bootstrap.rrect;rSize=5;strokeColor=none;strokeWidth=1;fillColor=none;fontColor=#000000;whiteSpace=wrap;align=center;verticalAlign=middle;spacingLeft=0;fontStyle=0;fontSize=16;spacing=5;fontFamily=Helvetica;" vertex="1" parent="k-J_ichgHFrV_qxmjCFs-142">
          <mxGeometry x="152" y="4" width="60" height="32" as="geometry" />
        </mxCell>
        <mxCell id="k-J_ichgHFrV_qxmjCFs-144" value="Link" style="html=1;shadow=0;dashed=0;shape=mxgraph.bootstrap.rrect;rSize=5;strokeColor=none;strokeWidth=1;fillColor=none;fontColor=#000000;whiteSpace=wrap;align=center;verticalAlign=middle;spacingLeft=0;fontStyle=0;fontSize=16;spacing=5;fontFamily=Helvetica;" vertex="1" parent="k-J_ichgHFrV_qxmjCFs-142">
          <mxGeometry x="225" y="4" width="60" height="32" as="geometry" />
        </mxCell>
        <mxCell id="k-J_ichgHFrV_qxmjCFs-145" value="Link" style="html=1;shadow=0;dashed=0;shape=mxgraph.bootstrap.rrect;rSize=5;strokeColor=none;strokeWidth=1;fillColor=none;fontColor=#000000;whiteSpace=wrap;align=center;verticalAlign=middle;spacingLeft=0;fontStyle=0;fontSize=16;spacing=5;fontFamily=Helvetica;" vertex="1" parent="k-J_ichgHFrV_qxmjCFs-142">
          <mxGeometry x="78" y="4" width="60" height="32" as="geometry" />
        </mxCell>
        <mxCell id="k-J_ichgHFrV_qxmjCFs-146" value="&lt;font&gt;Link&lt;/font&gt;" style="html=1;shadow=0;dashed=0;shape=mxgraph.bootstrap.rrect;rSize=5;strokeColor=none;strokeWidth=1;fillColor=none;fontColor=#000000;whiteSpace=wrap;align=center;verticalAlign=middle;spacingLeft=0;fontStyle=0;fontSize=16;spacing=5;fontFamily=Helvetica;" vertex="1" parent="k-J_ichgHFrV_qxmjCFs-142">
          <mxGeometry x="5" y="4" width="60" height="32" as="geometry" />
        </mxCell>
        <mxCell id="k-J_ichgHFrV_qxmjCFs-147" value="&lt;font style=&quot;font-size: 16px;&quot;&gt;Vanessa Coles&lt;/font&gt;" style="text;strokeColor=none;fillColor=none;align=center;verticalAlign=top;spacingLeft=4;spacingRight=4;overflow=hidden;rotatable=0;points=[[0,0.5],[1,0.5]];portConstraint=eastwest;whiteSpace=wrap;html=1;" vertex="1" parent="k-J_ichgHFrV_qxmjCFs-138">
          <mxGeometry x="41" y="125" width="129" height="26" as="geometry" />
        </mxCell>
        <mxCell id="k-J_ichgHFrV_qxmjCFs-148" value="&lt;font style=&quot;font-size: 14px;&quot;&gt;ThemeSwitcher&lt;/font&gt;" style="rounded=0;whiteSpace=wrap;html=1;strokeWidth=2;" vertex="1" parent="k-J_ichgHFrV_qxmjCFs-138">
          <mxGeometry x="878" y="120" width="120" height="40" as="geometry" />
        </mxCell>
        <mxCell id="k-J_ichgHFrV_qxmjCFs-149" value="" style="verticalLabelPosition=bottom;verticalAlign=top;html=1;shape=mxgraph.basic.rect;fillColor2=none;strokeWidth=2;size=20;indent=5;" vertex="1" parent="k-J_ichgHFrV_qxmjCFs-138">
          <mxGeometry x="20" y="191" width="980" height="969" as="geometry" />
        </mxCell>
        <mxCell id="k-J_ichgHFrV_qxmjCFs-150" value="&lt;h2&gt;&lt;font style=&quot;font-size: 16px;&quot;&gt;SectionProjects&lt;/font&gt;&lt;/h2&gt;" style="rounded=0;whiteSpace=wrap;html=1;strokeWidth=2;" vertex="1" parent="k-J_ichgHFrV_qxmjCFs-138">
          <mxGeometry x="20" y="191" width="980" height="60" as="geometry" />
        </mxCell>
        <mxCell id="k-J_ichgHFrV_qxmjCFs-151" value="&lt;font style=&quot;font-size: 16px;&quot;&gt;FeaturedProjectsContainer&lt;/font&gt;" style="swimlane;whiteSpace=wrap;html=1;startSize=52;strokeWidth=2;" vertex="1" parent="k-J_ichgHFrV_qxmjCFs-138">
          <mxGeometry x="40" y="560" width="940" height="570" as="geometry" />
        </mxCell>
        <mxCell id="k-J_ichgHFrV_qxmjCFs-181" value="" style="group" vertex="1" connectable="0" parent="k-J_ichgHFrV_qxmjCFs-138">
          <mxGeometry x="50" y="690" width="300" height="210" as="geometry" />
        </mxCell>
        <mxCell id="k-J_ichgHFrV_qxmjCFs-159" value="" style="rounded=0;whiteSpace=wrap;html=1;strokeWidth=2;glass=0;container=1;" vertex="1" parent="k-J_ichgHFrV_qxmjCFs-181">
          <mxGeometry width="300" height="208" as="geometry" />
        </mxCell>
        <mxCell id="k-J_ichgHFrV_qxmjCFs-160" value="" style="group" vertex="1" connectable="0" parent="k-J_ichgHFrV_qxmjCFs-181">
          <mxGeometry x="20" y="72" width="260" height="116" as="geometry" />
        </mxCell>
        <mxCell id="k-J_ichgHFrV_qxmjCFs-161" value="&lt;h3 style=&quot;margin-top: 0px;&quot;&gt;&lt;font style=&quot;font-size: 16px;&quot;&gt;FeaturedProjectCardTitle&lt;/font&gt;&lt;/h3&gt;&lt;p style=&quot;line-height: 180%;&quot;&gt;&lt;font style=&quot;font-size: 14px;&quot;&gt;FeaturedProjectCardDesc. Lorem ipsum dolor sit amet, consectetur.&lt;/font&gt;&lt;/p&gt;" style="text;html=1;whiteSpace=wrap;overflow=hidden;rounded=0;" vertex="1" parent="k-J_ichgHFrV_qxmjCFs-160">
          <mxGeometry width="260" height="79.09090909090908" as="geometry" />
        </mxCell>
        <mxCell id="k-J_ichgHFrV_qxmjCFs-169" value="FeaturedProjectCardLink&amp;nbsp;" style="fillColor=none;strokeColor=none;html=1;fontColor=#0057D8;align=left;verticalAlign=middle;fontStyle=0;fontSize=12" vertex="1" parent="k-J_ichgHFrV_qxmjCFs-181">
          <mxGeometry x="21" y="161" width="139" height="33" as="geometry" />
        </mxCell>
        <mxCell id="k-J_ichgHFrV_qxmjCFs-171" value="" style="whiteSpace=wrap;html=1;aspect=fixed;rounded=0;fillColor=#ffe6cc;strokeColor=#d79b00;strokeWidth=2;" vertex="1" parent="k-J_ichgHFrV_qxmjCFs-181">
          <mxGeometry x="22" y="20" width="40" height="40" as="geometry" />
        </mxCell>
        <mxCell id="k-J_ichgHFrV_qxmjCFs-182" value="" style="group" vertex="1" connectable="0" parent="k-J_ichgHFrV_qxmjCFs-138">
          <mxGeometry x="360" y="690" width="300" height="210" as="geometry" />
        </mxCell>
        <mxCell id="k-J_ichgHFrV_qxmjCFs-183" value="" style="rounded=0;whiteSpace=wrap;html=1;strokeWidth=2;glass=0;container=1;" vertex="1" parent="k-J_ichgHFrV_qxmjCFs-182">
          <mxGeometry width="300" height="208" as="geometry" />
        </mxCell>
        <mxCell id="k-J_ichgHFrV_qxmjCFs-184" value="" style="group" vertex="1" connectable="0" parent="k-J_ichgHFrV_qxmjCFs-182">
          <mxGeometry x="20" y="72" width="260" height="116" as="geometry" />
        </mxCell>
        <mxCell id="k-J_ichgHFrV_qxmjCFs-185" value="&lt;h3 style=&quot;margin-top: 0px;&quot;&gt;&lt;font style=&quot;font-size: 16px;&quot;&gt;FeaturedProjectCardTitle&lt;/font&gt;&lt;/h3&gt;&lt;p style=&quot;line-height: 180%;&quot;&gt;&lt;font style=&quot;font-size: 14px;&quot;&gt;FeaturedProjectCardDesc. Lorem ipsum dolor sit amet, consectetur.&lt;/font&gt;&lt;/p&gt;" style="text;html=1;whiteSpace=wrap;overflow=hidden;rounded=0;" vertex="1" parent="k-J_ichgHFrV_qxmjCFs-184">
          <mxGeometry width="260" height="79.09090909090908" as="geometry" />
        </mxCell>
        <mxCell id="k-J_ichgHFrV_qxmjCFs-186" value="FeaturedProjectCardLink&amp;nbsp;" style="fillColor=none;strokeColor=none;html=1;fontColor=#0057D8;align=left;verticalAlign=middle;fontStyle=0;fontSize=12" vertex="1" parent="k-J_ichgHFrV_qxmjCFs-182">
          <mxGeometry x="21" y="161" width="129" height="33" as="geometry" />
        </mxCell>
        <mxCell id="k-J_ichgHFrV_qxmjCFs-187" value="" style="whiteSpace=wrap;html=1;aspect=fixed;rounded=0;fillColor=#ffe6cc;strokeColor=#d79b00;strokeWidth=2;" vertex="1" parent="k-J_ichgHFrV_qxmjCFs-182">
          <mxGeometry x="22" y="20" width="40" height="40" as="geometry" />
        </mxCell>
        <mxCell id="k-J_ichgHFrV_qxmjCFs-188" value="" style="group" vertex="1" connectable="0" parent="k-J_ichgHFrV_qxmjCFs-138">
          <mxGeometry x="670" y="690" width="300" height="210" as="geometry" />
        </mxCell>
        <mxCell id="k-J_ichgHFrV_qxmjCFs-189" value="" style="rounded=0;whiteSpace=wrap;html=1;strokeWidth=2;glass=0;container=1;" vertex="1" parent="k-J_ichgHFrV_qxmjCFs-188">
          <mxGeometry width="300" height="208" as="geometry" />
        </mxCell>
        <mxCell id="k-J_ichgHFrV_qxmjCFs-190" value="" style="group" vertex="1" connectable="0" parent="k-J_ichgHFrV_qxmjCFs-188">
          <mxGeometry x="20" y="72" width="260" height="116" as="geometry" />
        </mxCell>
        <mxCell id="k-J_ichgHFrV_qxmjCFs-191" value="&lt;h3 style=&quot;margin-top: 0px;&quot;&gt;&lt;font style=&quot;font-size: 16px;&quot;&gt;FeaturedProjectCardTitle&lt;/font&gt;&lt;/h3&gt;&lt;p style=&quot;line-height: 180%;&quot;&gt;&lt;font style=&quot;font-size: 14px;&quot;&gt;FeaturedProjectCardDesc. Lorem ipsum dolor sit amet, consectetur.&lt;/font&gt;&lt;/p&gt;" style="text;html=1;whiteSpace=wrap;overflow=hidden;rounded=0;" vertex="1" parent="k-J_ichgHFrV_qxmjCFs-190">
          <mxGeometry width="260" height="79.09090909090908" as="geometry" />
        </mxCell>
        <mxCell id="k-J_ichgHFrV_qxmjCFs-192" value="FeaturedProjectCardLink&amp;nbsp;" style="fillColor=none;strokeColor=none;html=1;fontColor=#0057D8;align=left;verticalAlign=middle;fontStyle=0;fontSize=12" vertex="1" parent="k-J_ichgHFrV_qxmjCFs-188">
          <mxGeometry x="21" y="161" width="139" height="33" as="geometry" />
        </mxCell>
        <mxCell id="k-J_ichgHFrV_qxmjCFs-193" value="" style="whiteSpace=wrap;html=1;aspect=fixed;rounded=0;fillColor=#ffe6cc;strokeColor=#d79b00;strokeWidth=2;" vertex="1" parent="k-J_ichgHFrV_qxmjCFs-188">
          <mxGeometry x="22" y="20" width="40" height="40" as="geometry" />
        </mxCell>
        <mxCell id="k-J_ichgHFrV_qxmjCFs-194" value="" style="group" vertex="1" connectable="0" parent="k-J_ichgHFrV_qxmjCFs-138">
          <mxGeometry x="50" y="910" width="300" height="210" as="geometry" />
        </mxCell>
        <mxCell id="k-J_ichgHFrV_qxmjCFs-195" value="" style="rounded=0;whiteSpace=wrap;html=1;strokeWidth=2;glass=0;container=1;" vertex="1" parent="k-J_ichgHFrV_qxmjCFs-194">
          <mxGeometry width="300" height="208" as="geometry" />
        </mxCell>
        <mxCell id="k-J_ichgHFrV_qxmjCFs-196" value="" style="group" vertex="1" connectable="0" parent="k-J_ichgHFrV_qxmjCFs-194">
          <mxGeometry x="20" y="72" width="260" height="116" as="geometry" />
        </mxCell>
        <mxCell id="k-J_ichgHFrV_qxmjCFs-197" value="&lt;h3 style=&quot;margin-top: 0px;&quot;&gt;&lt;font style=&quot;font-size: 16px;&quot;&gt;FeaturedProjectCardTitle&lt;/font&gt;&lt;/h3&gt;&lt;p style=&quot;line-height: 180%;&quot;&gt;&lt;font style=&quot;font-size: 14px;&quot;&gt;FeaturedProjectCardDesc. Lorem ipsum dolor sit amet, consectetur.&lt;/font&gt;&lt;/p&gt;" style="text;html=1;whiteSpace=wrap;overflow=hidden;rounded=0;" vertex="1" parent="k-J_ichgHFrV_qxmjCFs-196">
          <mxGeometry width="260" height="79.09090909090908" as="geometry" />
        </mxCell>
        <mxCell id="k-J_ichgHFrV_qxmjCFs-198" value="FeaturedProjectCardLink&amp;nbsp;" style="fillColor=none;strokeColor=none;html=1;fontColor=#0057D8;align=left;verticalAlign=middle;fontStyle=0;fontSize=12" vertex="1" parent="k-J_ichgHFrV_qxmjCFs-194">
          <mxGeometry x="21" y="161" width="139" height="33" as="geometry" />
        </mxCell>
        <mxCell id="k-J_ichgHFrV_qxmjCFs-199" value="" style="whiteSpace=wrap;html=1;aspect=fixed;rounded=0;fillColor=#ffe6cc;strokeColor=#d79b00;strokeWidth=2;" vertex="1" parent="k-J_ichgHFrV_qxmjCFs-194">
          <mxGeometry x="22" y="20" width="40" height="40" as="geometry" />
        </mxCell>
        <mxCell id="k-J_ichgHFrV_qxmjCFs-200" value="" style="group" vertex="1" connectable="0" parent="k-J_ichgHFrV_qxmjCFs-138">
          <mxGeometry x="360" y="910" width="300" height="210" as="geometry" />
        </mxCell>
        <mxCell id="k-J_ichgHFrV_qxmjCFs-201" value="" style="rounded=0;whiteSpace=wrap;html=1;strokeWidth=2;glass=0;container=1;" vertex="1" parent="k-J_ichgHFrV_qxmjCFs-200">
          <mxGeometry width="300" height="208" as="geometry" />
        </mxCell>
        <mxCell id="k-J_ichgHFrV_qxmjCFs-202" value="" style="group" vertex="1" connectable="0" parent="k-J_ichgHFrV_qxmjCFs-200">
          <mxGeometry x="20" y="72" width="260" height="116" as="geometry" />
        </mxCell>
        <mxCell id="k-J_ichgHFrV_qxmjCFs-203" value="&lt;h3 style=&quot;margin-top: 0px;&quot;&gt;&lt;font style=&quot;font-size: 16px;&quot;&gt;FeaturedProjectCardTitle&lt;/font&gt;&lt;/h3&gt;&lt;p style=&quot;line-height: 180%;&quot;&gt;&lt;font style=&quot;font-size: 14px;&quot;&gt;FeaturedProjecCardtDesc. Lorem ipsum dolor sit amet, consectetur.&lt;/font&gt;&lt;/p&gt;" style="text;html=1;whiteSpace=wrap;overflow=hidden;rounded=0;" vertex="1" parent="k-J_ichgHFrV_qxmjCFs-202">
          <mxGeometry width="260" height="79.09090909090908" as="geometry" />
        </mxCell>
        <mxCell id="k-J_ichgHFrV_qxmjCFs-204" value="FeaturedProjectCardLink&amp;nbsp;" style="fillColor=none;strokeColor=none;html=1;fontColor=#0057D8;align=left;verticalAlign=middle;fontStyle=0;fontSize=12" vertex="1" parent="k-J_ichgHFrV_qxmjCFs-200">
          <mxGeometry x="21" y="161" width="139" height="33" as="geometry" />
        </mxCell>
        <mxCell id="k-J_ichgHFrV_qxmjCFs-205" value="" style="whiteSpace=wrap;html=1;aspect=fixed;rounded=0;fillColor=#ffe6cc;strokeColor=#d79b00;strokeWidth=2;" vertex="1" parent="k-J_ichgHFrV_qxmjCFs-200">
          <mxGeometry x="22" y="20" width="40" height="40" as="geometry" />
        </mxCell>
        <mxCell id="k-J_ichgHFrV_qxmjCFs-206" value="" style="group" vertex="1" connectable="0" parent="k-J_ichgHFrV_qxmjCFs-138">
          <mxGeometry x="670" y="910" width="300" height="210" as="geometry" />
        </mxCell>
        <mxCell id="k-J_ichgHFrV_qxmjCFs-207" value="" style="rounded=0;whiteSpace=wrap;html=1;strokeWidth=2;glass=0;container=1;" vertex="1" parent="k-J_ichgHFrV_qxmjCFs-206">
          <mxGeometry width="300" height="208" as="geometry" />
        </mxCell>
        <mxCell id="k-J_ichgHFrV_qxmjCFs-208" value="" style="group" vertex="1" connectable="0" parent="k-J_ichgHFrV_qxmjCFs-206">
          <mxGeometry x="20" y="72" width="260" height="116" as="geometry" />
        </mxCell>
        <mxCell id="k-J_ichgHFrV_qxmjCFs-209" value="&lt;h3 style=&quot;margin-top: 0px;&quot;&gt;&lt;font style=&quot;font-size: 16px;&quot;&gt;FeaturedProjectCardTitle&lt;/font&gt;&lt;/h3&gt;&lt;p style=&quot;line-height: 180%;&quot;&gt;&lt;font style=&quot;font-size: 14px;&quot;&gt;FeaturedProjectCardDesc. Lorem ipsum dolor sit amet, consectetur.&lt;/font&gt;&lt;/p&gt;" style="text;html=1;whiteSpace=wrap;overflow=hidden;rounded=0;" vertex="1" parent="k-J_ichgHFrV_qxmjCFs-208">
          <mxGeometry width="260" height="79.09090909090908" as="geometry" />
        </mxCell>
        <mxCell id="k-J_ichgHFrV_qxmjCFs-210" value="FeaturedProjectCardLink&amp;nbsp;" style="fillColor=none;strokeColor=none;html=1;fontColor=#0057D8;align=left;verticalAlign=middle;fontStyle=0;fontSize=12" vertex="1" parent="k-J_ichgHFrV_qxmjCFs-206">
          <mxGeometry x="21" y="161" width="139" height="33" as="geometry" />
        </mxCell>
        <mxCell id="k-J_ichgHFrV_qxmjCFs-211" value="" style="whiteSpace=wrap;html=1;aspect=fixed;rounded=0;fillColor=#ffe6cc;strokeColor=#d79b00;strokeWidth=2;" vertex="1" parent="k-J_ichgHFrV_qxmjCFs-206">
          <mxGeometry x="22" y="20" width="40" height="40" as="geometry" />
        </mxCell>
        <mxCell id="k-J_ichgHFrV_qxmjCFs-435" value="" style="group" vertex="1" connectable="0" parent="k-J_ichgHFrV_qxmjCFs-138">
          <mxGeometry x="40" y="268" width="725" height="271" as="geometry" />
        </mxCell>
        <mxCell id="k-J_ichgHFrV_qxmjCFs-436" value="" style="group" vertex="1" connectable="0" parent="k-J_ichgHFrV_qxmjCFs-435">
          <mxGeometry y="50" width="420" height="221" as="geometry" />
        </mxCell>
        <mxCell id="k-J_ichgHFrV_qxmjCFs-437" value="&lt;font style=&quot;font-size: 14px;&quot;&gt;SectionDesc&lt;/font&gt;" style="rounded=0;whiteSpace=wrap;html=1;strokeWidth=2;" vertex="1" parent="k-J_ichgHFrV_qxmjCFs-436">
          <mxGeometry x="10" y="101" width="410" height="60" as="geometry" />
        </mxCell>
        <mxCell id="k-J_ichgHFrV_qxmjCFs-438" value="&lt;font style=&quot;font-size: 14px;&quot;&gt;SectionHeader&lt;/font&gt;" style="swimlane;fontStyle=0;childLayout=stackLayout;horizontal=1;startSize=30;horizontalStack=0;resizeParent=1;resizeParentMax=0;resizeLast=0;collapsible=1;marginBottom=0;whiteSpace=wrap;html=1;strokeWidth=2;" vertex="1" parent="k-J_ichgHFrV_qxmjCFs-436">
          <mxGeometry x="10" width="410" height="90" as="geometry" />
        </mxCell>
        <mxCell id="k-J_ichgHFrV_qxmjCFs-439" value="&lt;font style=&quot;font-size: 14px;&quot;&gt;SectionEyebrow&lt;/font&gt;" style="text;strokeColor=none;fillColor=none;align=left;verticalAlign=middle;spacingLeft=4;spacingRight=4;overflow=hidden;points=[[0,0.5],[1,0.5]];portConstraint=eastwest;rotatable=0;whiteSpace=wrap;html=1;" vertex="1" parent="k-J_ichgHFrV_qxmjCFs-438">
          <mxGeometry y="30" width="410" height="30" as="geometry" />
        </mxCell>
        <mxCell id="k-J_ichgHFrV_qxmjCFs-440" value="&lt;font style=&quot;font-size: 14px;&quot;&gt;SectionTitle&lt;/font&gt;" style="text;strokeColor=none;fillColor=none;align=left;verticalAlign=middle;spacingLeft=4;spacingRight=4;overflow=hidden;points=[[0,0.5],[1,0.5]];portConstraint=eastwest;rotatable=0;whiteSpace=wrap;html=1;" vertex="1" parent="k-J_ichgHFrV_qxmjCFs-438">
          <mxGeometry y="60" width="410" height="30" as="geometry" />
        </mxCell>
        <mxCell id="k-J_ichgHFrV_qxmjCFs-441" value="&lt;font style=&quot;font-size: 14px;&quot;&gt;SectionHeaderContainer&lt;/font&gt;" style="swimlane;whiteSpace=wrap;html=1;startSize=40;strokeWidth=2;" vertex="1" parent="k-J_ichgHFrV_qxmjCFs-435">
          <mxGeometry width="428" height="270" as="geometry" />
        </mxCell>
        <mxCell id="k-J_ichgHFrV_qxmjCFs-442" style="edgeStyle=orthogonalEdgeStyle;rounded=0;orthogonalLoop=1;jettySize=auto;html=1;entryX=0;entryY=0.25;entryDx=0;entryDy=0;" edge="1" parent="k-J_ichgHFrV_qxmjCFs-435" source="k-J_ichgHFrV_qxmjCFs-443" target="k-J_ichgHFrV_qxmjCFs-444">
          <mxGeometry relative="1" as="geometry" />
        </mxCell>
        <mxCell id="k-J_ichgHFrV_qxmjCFs-443" value="&lt;font style=&quot;font-size: 14px;&quot;&gt;BtnPrimary (Optional)&lt;/font&gt;" style="html=1;shadow=0;dashed=0;shape=mxgraph.bootstrap.rrect;rSize=5;strokeColor=none;strokeWidth=1;fillColor=#0085FC;fontColor=#FFFFFF;whiteSpace=wrap;align=center;verticalAlign=middle;spacingLeft=0;fontStyle=0;fontSize=16;spacing=5;" vertex="1" parent="k-J_ichgHFrV_qxmjCFs-435">
          <mxGeometry x="9" y="220" width="166" height="36" as="geometry" />
        </mxCell>
        <mxCell id="k-J_ichgHFrV_qxmjCFs-444" value="BtnPrimary [component=&quot;BtnFeaturedCta&quot;]" style="swimlane;whiteSpace=wrap;html=1;startSize=30;strokeWidth=2;" vertex="1" parent="k-J_ichgHFrV_qxmjCFs-435">
          <mxGeometry x="445" y="204" width="280" height="59" as="geometry" />
        </mxCell>
        <mxCell id="k-J_ichgHFrV_qxmjCFs-503" style="edgeStyle=orthogonalEdgeStyle;rounded=0;orthogonalLoop=1;jettySize=auto;html=1;" edge="1" parent="k-J_ichgHFrV_qxmjCFs-138" source="k-J_ichgHFrV_qxmjCFs-189" target="k-J_ichgHFrV_qxmjCFs-496">
          <mxGeometry relative="1" as="geometry">
            <Array as="points">
              <mxPoint x="1015" y="794" />
              <mxPoint x="1015" y="452" />
            </Array>
          </mxGeometry>
        </mxCell>
        <mxCell id="k-J_ichgHFrV_qxmjCFs-212" value="" style="rounded=0;whiteSpace=wrap;html=1;strokeWidth=2;glass=0;container=1;" vertex="1" parent="1">
          <mxGeometry x="4580" y="778" width="300" height="162" as="geometry" />
        </mxCell>
        <mxCell id="k-J_ichgHFrV_qxmjCFs-213" value="" style="edgeStyle=orthogonalEdgeStyle;rounded=0;orthogonalLoop=1;jettySize=auto;html=1;" edge="1" parent="1" source="k-J_ichgHFrV_qxmjCFs-189" target="k-J_ichgHFrV_qxmjCFs-212">
          <mxGeometry relative="1" as="geometry" />
        </mxCell>
        <mxCell id="k-J_ichgHFrV_qxmjCFs-214" value="&lt;b&gt;&lt;font style=&quot;font-size: 14px;&quot;&gt;FeaturedProjectCard&lt;/font&gt;&lt;/b&gt;" style="swimlane;fontStyle=0;childLayout=stackLayout;horizontal=1;startSize=42;horizontalStack=0;resizeParent=1;resizeParentMax=0;resizeLast=0;collapsible=1;marginBottom=0;whiteSpace=wrap;html=1;strokeWidth=2;" vertex="1" parent="1">
          <mxGeometry x="4580" y="778" width="300" height="162" as="geometry">
            <mxRectangle x="4580" y="778" width="180" height="42" as="alternateBounds" />
          </mxGeometry>
        </mxCell>
        <mxCell id="k-J_ichgHFrV_qxmjCFs-215" value="FeaturedProjectCardIcon" style="text;strokeColor=none;fillColor=none;align=left;verticalAlign=middle;spacingLeft=4;spacingRight=4;overflow=hidden;points=[[0,0.5],[1,0.5]];portConstraint=eastwest;rotatable=0;whiteSpace=wrap;html=1;fontSize=14;" vertex="1" parent="k-J_ichgHFrV_qxmjCFs-214">
          <mxGeometry y="42" width="300" height="30" as="geometry" />
        </mxCell>
        <mxCell id="k-J_ichgHFrV_qxmjCFs-216" value="FeaturedProjectCardTitle" style="text;strokeColor=none;fillColor=none;align=left;verticalAlign=middle;spacingLeft=4;spacingRight=4;overflow=hidden;points=[[0,0.5],[1,0.5]];portConstraint=eastwest;rotatable=0;whiteSpace=wrap;html=1;fontSize=14;" vertex="1" parent="k-J_ichgHFrV_qxmjCFs-214">
          <mxGeometry y="72" width="300" height="30" as="geometry" />
        </mxCell>
        <mxCell id="k-J_ichgHFrV_qxmjCFs-217" value="FeaturedProjectCardDesc" style="text;strokeColor=none;fillColor=none;align=left;verticalAlign=middle;spacingLeft=4;spacingRight=4;overflow=hidden;points=[[0,0.5],[1,0.5]];portConstraint=eastwest;rotatable=0;whiteSpace=wrap;html=1;fontSize=14;" vertex="1" parent="k-J_ichgHFrV_qxmjCFs-214">
          <mxGeometry y="102" width="300" height="30" as="geometry" />
        </mxCell>
        <mxCell id="k-J_ichgHFrV_qxmjCFs-218" value="FeaturedProjectCardLink" style="text;strokeColor=none;fillColor=none;align=left;verticalAlign=middle;spacingLeft=4;spacingRight=4;overflow=hidden;points=[[0,0.5],[1,0.5]];portConstraint=eastwest;rotatable=0;whiteSpace=wrap;html=1;fontSize=14;" vertex="1" parent="k-J_ichgHFrV_qxmjCFs-214">
          <mxGeometry y="132" width="300" height="30" as="geometry" />
        </mxCell>
        <mxCell id="k-J_ichgHFrV_qxmjCFs-219" value="&lt;font size=&quot;1&quot; style=&quot;&quot;&gt;&lt;b style=&quot;font-size: 16px;&quot;&gt;FeaturedProjectCardsList [projects={ projects }]&lt;/b&gt;&lt;/font&gt;" style="rounded=0;whiteSpace=wrap;html=1;strokeWidth=2;glass=0;container=1;" vertex="1" parent="1">
          <mxGeometry x="3580" y="815" width="920" height="53" as="geometry" />
        </mxCell>
        <mxCell id="k-J_ichgHFrV_qxmjCFs-262" value="" style="strokeWidth=1;shadow=0;dashed=0;align=center;html=1;shape=mxgraph.mockup.containers.browserWindow;rSize=0;strokeColor=#666666;strokeColor2=#008cff;strokeColor3=#c4c4c4;mainText=,;recursiveResize=0;" vertex="1" parent="1">
          <mxGeometry x="50" y="1570" width="1020" height="1470" as="geometry" />
        </mxCell>
        <mxCell id="k-J_ichgHFrV_qxmjCFs-390" value="" style="verticalLabelPosition=bottom;verticalAlign=top;html=1;shape=mxgraph.basic.rect;fillColor2=none;strokeWidth=2;size=20;indent=5;" vertex="1" parent="k-J_ichgHFrV_qxmjCFs-262">
          <mxGeometry x="20" y="250" width="980" height="1200" as="geometry" />
        </mxCell>
        <mxCell id="k-J_ichgHFrV_qxmjCFs-391" value="&lt;h2&gt;&lt;font style=&quot;font-size: 16px;&quot;&gt;SectionFeaturedImages&lt;/font&gt;&lt;/h2&gt;" style="rounded=0;whiteSpace=wrap;html=1;strokeWidth=2;" vertex="1" parent="k-J_ichgHFrV_qxmjCFs-262">
          <mxGeometry x="20" y="190" width="980" height="60" as="geometry" />
        </mxCell>
        <mxCell id="k-J_ichgHFrV_qxmjCFs-263" value="Page 1" style="strokeWidth=1;shadow=0;dashed=0;align=center;html=1;shape=mxgraph.mockup.containers.anchor;fontSize=17;fontColor=#666666;align=left;whiteSpace=wrap;" vertex="1" parent="k-J_ichgHFrV_qxmjCFs-262">
          <mxGeometry x="60" y="12" width="110" height="26" as="geometry" />
        </mxCell>
        <mxCell id="k-J_ichgHFrV_qxmjCFs-264" value="https://www.draw.io" style="strokeWidth=1;shadow=0;dashed=0;align=center;html=1;shape=mxgraph.mockup.containers.anchor;rSize=0;fontSize=17;fontColor=#666666;align=left;" vertex="1" parent="k-J_ichgHFrV_qxmjCFs-262">
          <mxGeometry x="130" y="60" width="250" height="26" as="geometry" />
        </mxCell>
        <mxCell id="k-J_ichgHFrV_qxmjCFs-265" value="" style="rounded=0;whiteSpace=wrap;html=1;strokeWidth=2;" vertex="1" parent="k-J_ichgHFrV_qxmjCFs-262">
          <mxGeometry y="110" width="1020" height="60" as="geometry" />
        </mxCell>
        <mxCell id="k-J_ichgHFrV_qxmjCFs-266" value="" style="group;strokeWidth=2;fillColor=#FFFFFF;strokeColor=#000000;" vertex="1" connectable="0" parent="k-J_ichgHFrV_qxmjCFs-262">
          <mxGeometry x="570" y="120" width="290" height="40" as="geometry" />
        </mxCell>
        <mxCell id="k-J_ichgHFrV_qxmjCFs-267" value="Link" style="html=1;shadow=0;dashed=0;shape=mxgraph.bootstrap.rrect;rSize=5;strokeColor=none;strokeWidth=1;fillColor=none;fontColor=#000000;whiteSpace=wrap;align=center;verticalAlign=middle;spacingLeft=0;fontStyle=0;fontSize=16;spacing=5;fontFamily=Helvetica;" vertex="1" parent="k-J_ichgHFrV_qxmjCFs-266">
          <mxGeometry x="152" y="4" width="60" height="32" as="geometry" />
        </mxCell>
        <mxCell id="k-J_ichgHFrV_qxmjCFs-268" value="Link" style="html=1;shadow=0;dashed=0;shape=mxgraph.bootstrap.rrect;rSize=5;strokeColor=none;strokeWidth=1;fillColor=none;fontColor=#000000;whiteSpace=wrap;align=center;verticalAlign=middle;spacingLeft=0;fontStyle=0;fontSize=16;spacing=5;fontFamily=Helvetica;" vertex="1" parent="k-J_ichgHFrV_qxmjCFs-266">
          <mxGeometry x="225" y="4" width="60" height="32" as="geometry" />
        </mxCell>
        <mxCell id="k-J_ichgHFrV_qxmjCFs-269" value="Link" style="html=1;shadow=0;dashed=0;shape=mxgraph.bootstrap.rrect;rSize=5;strokeColor=none;strokeWidth=1;fillColor=none;fontColor=#000000;whiteSpace=wrap;align=center;verticalAlign=middle;spacingLeft=0;fontStyle=0;fontSize=16;spacing=5;fontFamily=Helvetica;" vertex="1" parent="k-J_ichgHFrV_qxmjCFs-266">
          <mxGeometry x="78" y="4" width="60" height="32" as="geometry" />
        </mxCell>
        <mxCell id="k-J_ichgHFrV_qxmjCFs-270" value="&lt;font&gt;Link&lt;/font&gt;" style="html=1;shadow=0;dashed=0;shape=mxgraph.bootstrap.rrect;rSize=5;strokeColor=none;strokeWidth=1;fillColor=none;fontColor=#000000;whiteSpace=wrap;align=center;verticalAlign=middle;spacingLeft=0;fontStyle=0;fontSize=16;spacing=5;fontFamily=Helvetica;" vertex="1" parent="k-J_ichgHFrV_qxmjCFs-266">
          <mxGeometry x="5" y="4" width="60" height="32" as="geometry" />
        </mxCell>
        <mxCell id="k-J_ichgHFrV_qxmjCFs-271" value="&lt;font style=&quot;font-size: 16px;&quot;&gt;Vanessa Coles&lt;/font&gt;" style="text;strokeColor=none;fillColor=none;align=center;verticalAlign=top;spacingLeft=4;spacingRight=4;overflow=hidden;rotatable=0;points=[[0,0.5],[1,0.5]];portConstraint=eastwest;whiteSpace=wrap;html=1;" vertex="1" parent="k-J_ichgHFrV_qxmjCFs-262">
          <mxGeometry x="41" y="125" width="129" height="26" as="geometry" />
        </mxCell>
        <mxCell id="k-J_ichgHFrV_qxmjCFs-272" value="&lt;font style=&quot;font-size: 14px;&quot;&gt;ThemeSwitcher&lt;/font&gt;" style="rounded=0;whiteSpace=wrap;html=1;strokeWidth=2;" vertex="1" parent="k-J_ichgHFrV_qxmjCFs-262">
          <mxGeometry x="878" y="120" width="120" height="40" as="geometry" />
        </mxCell>
        <mxCell id="k-J_ichgHFrV_qxmjCFs-280" value="FeaturedImageCardsContainer" style="swimlane;fontSize=16;startSize=50;strokeWidth=2;" vertex="1" parent="k-J_ichgHFrV_qxmjCFs-262">
          <mxGeometry x="40" y="570" width="940" height="860" as="geometry" />
        </mxCell>
        <mxCell id="k-J_ichgHFrV_qxmjCFs-281" value="&lt;font size=&quot;1&quot; style=&quot;&quot;&gt;&lt;b style=&quot;font-size: 16px;&quot;&gt;FeaturedImageCardList [cards={ featuredImageCards }]&lt;/b&gt;&lt;/font&gt;" style="rounded=0;whiteSpace=wrap;html=1;strokeWidth=2;glass=0;container=1;" vertex="1" parent="k-J_ichgHFrV_qxmjCFs-280">
          <mxGeometry x="15" y="67" width="905" height="60" as="geometry" />
        </mxCell>
        <mxCell id="k-J_ichgHFrV_qxmjCFs-288" value="" style="group" vertex="1" connectable="0" parent="k-J_ichgHFrV_qxmjCFs-280">
          <mxGeometry x="15" y="149" width="905" height="209.58" as="geometry" />
        </mxCell>
        <mxCell id="k-J_ichgHFrV_qxmjCFs-285" value="&lt;font style=&quot;font-size: 14px;&quot;&gt;FeaturedImageCard&lt;/font&gt;" style="rounded=0;whiteSpace=wrap;html=1;strokeWidth=2;glass=0;container=1;fillColor=#ffe6cc;strokeColor=#d79b00;" vertex="1" parent="k-J_ichgHFrV_qxmjCFs-288">
          <mxGeometry width="285.7894736842105" height="209.58" as="geometry" />
        </mxCell>
        <mxCell id="k-J_ichgHFrV_qxmjCFs-286" value="&lt;span style=&quot;font-size: 14px;&quot;&gt;FeaturedImageCard&lt;/span&gt;" style="rounded=0;whiteSpace=wrap;html=1;strokeWidth=2;glass=0;container=1;fillColor=#ffe6cc;strokeColor=#d79b00;" vertex="1" parent="k-J_ichgHFrV_qxmjCFs-288">
          <mxGeometry x="619.2105263157895" width="285.7894736842105" height="209.58" as="geometry" />
        </mxCell>
        <mxCell id="k-J_ichgHFrV_qxmjCFs-287" value="&lt;span style=&quot;font-size: 14px;&quot;&gt;FeaturedImageCard&lt;/span&gt;" style="rounded=0;whiteSpace=wrap;html=1;strokeWidth=2;glass=0;container=1;fillColor=#ffe6cc;strokeColor=#d79b00;" vertex="1" parent="k-J_ichgHFrV_qxmjCFs-288">
          <mxGeometry x="309.60526315789474" width="285.7894736842105" height="209.58" as="geometry" />
        </mxCell>
        <mxCell id="k-J_ichgHFrV_qxmjCFs-289" value="" style="group" vertex="1" connectable="0" parent="k-J_ichgHFrV_qxmjCFs-280">
          <mxGeometry x="15" y="390" width="905" height="209.58" as="geometry" />
        </mxCell>
        <mxCell id="k-J_ichgHFrV_qxmjCFs-290" value="&lt;span style=&quot;font-size: 14px;&quot;&gt;FeaturedImageCard&lt;/span&gt;" style="rounded=0;whiteSpace=wrap;html=1;strokeWidth=2;glass=0;container=1;fillColor=#ffe6cc;strokeColor=#d79b00;" vertex="1" parent="k-J_ichgHFrV_qxmjCFs-289">
          <mxGeometry width="285.7894736842105" height="209.58" as="geometry" />
        </mxCell>
        <mxCell id="k-J_ichgHFrV_qxmjCFs-291" value="&lt;span style=&quot;font-size: 14px;&quot;&gt;FeaturedImageCard&lt;/span&gt;" style="rounded=0;whiteSpace=wrap;html=1;strokeWidth=2;glass=0;container=1;fillColor=#ffe6cc;strokeColor=#d79b00;" vertex="1" parent="k-J_ichgHFrV_qxmjCFs-289">
          <mxGeometry x="619.2105263157895" width="285.7894736842105" height="209.58" as="geometry" />
        </mxCell>
        <mxCell id="k-J_ichgHFrV_qxmjCFs-292" value="&lt;span style=&quot;font-size: 14px;&quot;&gt;FeaturedImageCard&lt;/span&gt;" style="rounded=0;whiteSpace=wrap;html=1;strokeWidth=2;glass=0;container=1;fillColor=#ffe6cc;strokeColor=#d79b00;" vertex="1" parent="k-J_ichgHFrV_qxmjCFs-289">
          <mxGeometry x="309.60526315789474" width="285.7894736842105" height="209.58" as="geometry" />
        </mxCell>
        <mxCell id="k-J_ichgHFrV_qxmjCFs-294" value="" style="group" vertex="1" connectable="0" parent="k-J_ichgHFrV_qxmjCFs-280">
          <mxGeometry x="15" y="632" width="905" height="209.58" as="geometry" />
        </mxCell>
        <mxCell id="k-J_ichgHFrV_qxmjCFs-295" value="&lt;span style=&quot;font-size: 14px;&quot;&gt;FeaturedImage&lt;/span&gt;" style="rounded=0;whiteSpace=wrap;html=1;strokeWidth=2;glass=0;container=1;fillColor=#ffe6cc;strokeColor=#d79b00;" vertex="1" parent="k-J_ichgHFrV_qxmjCFs-294">
          <mxGeometry width="285.7894736842105" height="209.58" as="geometry" />
        </mxCell>
        <mxCell id="k-J_ichgHFrV_qxmjCFs-296" value="&lt;span style=&quot;font-size: 14px;&quot;&gt;FeaturedImage&lt;/span&gt;" style="rounded=0;whiteSpace=wrap;html=1;strokeWidth=2;glass=0;container=1;fillColor=#ffe6cc;strokeColor=#d79b00;" vertex="1" parent="k-J_ichgHFrV_qxmjCFs-294">
          <mxGeometry x="619.2105263157895" width="285.7894736842105" height="209.58" as="geometry" />
        </mxCell>
        <mxCell id="k-J_ichgHFrV_qxmjCFs-297" value="&lt;span style=&quot;font-size: 14px;&quot;&gt;FeaturedImage&lt;/span&gt;" style="rounded=0;whiteSpace=wrap;html=1;strokeWidth=2;glass=0;container=1;fillColor=#ffe6cc;strokeColor=#d79b00;" vertex="1" parent="k-J_ichgHFrV_qxmjCFs-294">
          <mxGeometry x="309.60526315789474" width="285.7894736842105" height="209.58" as="geometry" />
        </mxCell>
        <mxCell id="k-J_ichgHFrV_qxmjCFs-455" value="" style="group" vertex="1" connectable="0" parent="k-J_ichgHFrV_qxmjCFs-262">
          <mxGeometry x="41" y="270" width="725" height="271" as="geometry" />
        </mxCell>
        <mxCell id="k-J_ichgHFrV_qxmjCFs-456" value="" style="group" vertex="1" connectable="0" parent="k-J_ichgHFrV_qxmjCFs-455">
          <mxGeometry y="50" width="420" height="221" as="geometry" />
        </mxCell>
        <mxCell id="k-J_ichgHFrV_qxmjCFs-457" value="&lt;font style=&quot;font-size: 14px;&quot;&gt;SectionDesc&lt;/font&gt;" style="rounded=0;whiteSpace=wrap;html=1;strokeWidth=2;" vertex="1" parent="k-J_ichgHFrV_qxmjCFs-456">
          <mxGeometry x="10" y="101" width="410" height="60" as="geometry" />
        </mxCell>
        <mxCell id="k-J_ichgHFrV_qxmjCFs-458" value="&lt;font style=&quot;font-size: 14px;&quot;&gt;SectionHeader&lt;/font&gt;" style="swimlane;fontStyle=0;childLayout=stackLayout;horizontal=1;startSize=30;horizontalStack=0;resizeParent=1;resizeParentMax=0;resizeLast=0;collapsible=1;marginBottom=0;whiteSpace=wrap;html=1;strokeWidth=2;" vertex="1" parent="k-J_ichgHFrV_qxmjCFs-456">
          <mxGeometry x="10" width="410" height="90" as="geometry" />
        </mxCell>
        <mxCell id="k-J_ichgHFrV_qxmjCFs-459" value="&lt;font style=&quot;font-size: 14px;&quot;&gt;SectionEyebrow&lt;/font&gt;" style="text;strokeColor=none;fillColor=none;align=left;verticalAlign=middle;spacingLeft=4;spacingRight=4;overflow=hidden;points=[[0,0.5],[1,0.5]];portConstraint=eastwest;rotatable=0;whiteSpace=wrap;html=1;" vertex="1" parent="k-J_ichgHFrV_qxmjCFs-458">
          <mxGeometry y="30" width="410" height="30" as="geometry" />
        </mxCell>
        <mxCell id="k-J_ichgHFrV_qxmjCFs-460" value="&lt;font style=&quot;font-size: 14px;&quot;&gt;SectionTitle&lt;/font&gt;" style="text;strokeColor=none;fillColor=none;align=left;verticalAlign=middle;spacingLeft=4;spacingRight=4;overflow=hidden;points=[[0,0.5],[1,0.5]];portConstraint=eastwest;rotatable=0;whiteSpace=wrap;html=1;" vertex="1" parent="k-J_ichgHFrV_qxmjCFs-458">
          <mxGeometry y="60" width="410" height="30" as="geometry" />
        </mxCell>
        <mxCell id="k-J_ichgHFrV_qxmjCFs-461" value="&lt;font style=&quot;font-size: 14px;&quot;&gt;SectionHeaderContainer&lt;/font&gt;" style="swimlane;whiteSpace=wrap;html=1;startSize=40;strokeWidth=2;" vertex="1" parent="k-J_ichgHFrV_qxmjCFs-455">
          <mxGeometry width="428" height="270" as="geometry" />
        </mxCell>
        <mxCell id="k-J_ichgHFrV_qxmjCFs-462" style="edgeStyle=orthogonalEdgeStyle;rounded=0;orthogonalLoop=1;jettySize=auto;html=1;entryX=0;entryY=0.25;entryDx=0;entryDy=0;" edge="1" parent="k-J_ichgHFrV_qxmjCFs-455" source="k-J_ichgHFrV_qxmjCFs-463" target="k-J_ichgHFrV_qxmjCFs-464">
          <mxGeometry relative="1" as="geometry" />
        </mxCell>
        <mxCell id="k-J_ichgHFrV_qxmjCFs-463" value="&lt;font style=&quot;font-size: 14px;&quot;&gt;BtnPrimary (Optional)&lt;/font&gt;" style="html=1;shadow=0;dashed=0;shape=mxgraph.bootstrap.rrect;rSize=5;strokeColor=none;strokeWidth=1;fillColor=#0085FC;fontColor=#FFFFFF;whiteSpace=wrap;align=center;verticalAlign=middle;spacingLeft=0;fontStyle=0;fontSize=16;spacing=5;" vertex="1" parent="k-J_ichgHFrV_qxmjCFs-455">
          <mxGeometry x="9" y="220" width="166" height="36" as="geometry" />
        </mxCell>
        <mxCell id="k-J_ichgHFrV_qxmjCFs-464" value="BtnPrimary [component=&quot;BtnFeaturedCta&quot;]" style="swimlane;whiteSpace=wrap;html=1;startSize=30;strokeWidth=2;" vertex="1" parent="k-J_ichgHFrV_qxmjCFs-455">
          <mxGeometry x="445" y="204" width="280" height="59" as="geometry" />
        </mxCell>
        <mxCell id="k-J_ichgHFrV_qxmjCFs-258" value="" style="swimlane;startSize=0;strokeWidth=2;" vertex="1" parent="1">
          <mxGeometry x="4580" y="963.5" width="600" height="266.5" as="geometry" />
        </mxCell>
        <mxCell id="k-J_ichgHFrV_qxmjCFs-229" value="Interface FeaturedProjectCard" style="shape=table;childLayout=tableLayout;startSize=40;collapsible=0;recursiveResize=0;expand=0;fontSize=14;fontStyle=1;strokeWidth=2;" vertex="1" parent="k-J_ichgHFrV_qxmjCFs-258">
          <mxGeometry y="-0.25" width="600" height="259" as="geometry" />
        </mxCell>
        <mxCell id="k-J_ichgHFrV_qxmjCFs-230" value="" style="shape=tableRow;horizontal=0;swimlaneHead=0;swimlaneBody=0;top=0;left=0;strokeColor=inherit;bottom=0;right=0;dropTarget=0;fontStyle=0;fillColor=none;points=[[0,0.5],[1,0.5]];portConstraint=eastwest;startSize=41;collapsible=0;recursiveResize=0;expand=0;" vertex="1" parent="k-J_ichgHFrV_qxmjCFs-229">
          <mxGeometry y="40" width="600" height="35" as="geometry" />
        </mxCell>
        <mxCell id="k-J_ichgHFrV_qxmjCFs-231" value="properties" style="swimlane;swimlaneHead=0;swimlaneBody=0;fontStyle=0;strokeColor=inherit;connectable=0;fillColor=none;startSize=40;collapsible=0;recursiveResize=0;expand=0;align=center;" vertex="1" parent="k-J_ichgHFrV_qxmjCFs-230">
          <mxGeometry x="41" width="194" height="35" as="geometry">
            <mxRectangle width="194" height="35" as="alternateBounds" />
          </mxGeometry>
        </mxCell>
        <mxCell id="k-J_ichgHFrV_qxmjCFs-232" value="values" style="swimlane;swimlaneHead=0;swimlaneBody=0;fontStyle=0;strokeColor=inherit;connectable=0;fillColor=none;startSize=40;collapsible=0;recursiveResize=0;expand=0;" vertex="1" parent="k-J_ichgHFrV_qxmjCFs-230">
          <mxGeometry x="235" width="365" height="35" as="geometry">
            <mxRectangle width="365" height="35" as="alternateBounds" />
          </mxGeometry>
        </mxCell>
        <mxCell id="k-J_ichgHFrV_qxmjCFs-233" value="" style="shape=tableRow;horizontal=0;swimlaneHead=0;swimlaneBody=0;top=0;left=0;strokeColor=inherit;bottom=0;right=0;dropTarget=0;fontStyle=0;fillColor=none;points=[[0,0.5],[1,0.5]];portConstraint=eastwest;startSize=41;collapsible=0;recursiveResize=0;expand=0;" vertex="1" parent="k-J_ichgHFrV_qxmjCFs-229">
          <mxGeometry y="75" width="600" height="30" as="geometry" />
        </mxCell>
        <mxCell id="k-J_ichgHFrV_qxmjCFs-234" value="" style="swimlane;swimlaneHead=0;swimlaneBody=0;fontStyle=0;connectable=0;strokeColor=inherit;fillColor=none;startSize=0;collapsible=0;recursiveResize=0;expand=0;" vertex="1" parent="k-J_ichgHFrV_qxmjCFs-233">
          <mxGeometry x="41" width="194" height="30" as="geometry">
            <mxRectangle width="194" height="30" as="alternateBounds" />
          </mxGeometry>
        </mxCell>
        <mxCell id="k-J_ichgHFrV_qxmjCFs-244" value="id" style="text;html=1;align=left;verticalAlign=middle;resizable=0;points=[];autosize=1;strokeColor=none;fillColor=none;" vertex="1" parent="k-J_ichgHFrV_qxmjCFs-234">
          <mxGeometry x="10" width="30" height="30" as="geometry" />
        </mxCell>
        <mxCell id="k-J_ichgHFrV_qxmjCFs-235" value="" style="swimlane;swimlaneHead=0;swimlaneBody=0;fontStyle=0;connectable=0;strokeColor=inherit;fillColor=none;startSize=0;collapsible=0;recursiveResize=0;expand=0;" vertex="1" parent="k-J_ichgHFrV_qxmjCFs-233">
          <mxGeometry x="235" width="365" height="30" as="geometry">
            <mxRectangle width="365" height="30" as="alternateBounds" />
          </mxGeometry>
        </mxCell>
        <mxCell id="k-J_ichgHFrV_qxmjCFs-245" value="string" style="text;html=1;align=left;verticalAlign=middle;resizable=0;points=[];autosize=1;strokeColor=none;fillColor=none;" vertex="1" parent="k-J_ichgHFrV_qxmjCFs-235">
          <mxGeometry x="10" width="50" height="30" as="geometry" />
        </mxCell>
        <mxCell id="k-J_ichgHFrV_qxmjCFs-236" value="" style="shape=tableRow;horizontal=0;swimlaneHead=0;swimlaneBody=0;top=0;left=0;strokeColor=inherit;bottom=0;right=0;dropTarget=0;fontStyle=0;fillColor=none;points=[[0,0.5],[1,0.5]];portConstraint=eastwest;startSize=41;collapsible=0;recursiveResize=0;expand=0;" vertex="1" parent="k-J_ichgHFrV_qxmjCFs-229">
          <mxGeometry y="105" width="600" height="31" as="geometry" />
        </mxCell>
        <mxCell id="k-J_ichgHFrV_qxmjCFs-237" value="" style="swimlane;swimlaneHead=0;swimlaneBody=0;fontStyle=0;connectable=0;strokeColor=inherit;fillColor=none;startSize=0;collapsible=0;recursiveResize=0;expand=0;" vertex="1" parent="k-J_ichgHFrV_qxmjCFs-236">
          <mxGeometry x="41" width="194" height="31" as="geometry">
            <mxRectangle width="194" height="31" as="alternateBounds" />
          </mxGeometry>
        </mxCell>
        <mxCell id="k-J_ichgHFrV_qxmjCFs-247" value="desc" style="text;html=1;align=left;verticalAlign=middle;resizable=0;points=[];autosize=1;strokeColor=none;fillColor=none;fontSize=12;" vertex="1" parent="k-J_ichgHFrV_qxmjCFs-237">
          <mxGeometry x="10" y="0.5" width="50" height="30" as="geometry" />
        </mxCell>
        <mxCell id="k-J_ichgHFrV_qxmjCFs-238" value="" style="swimlane;swimlaneHead=0;swimlaneBody=0;fontStyle=0;connectable=0;strokeColor=inherit;fillColor=none;startSize=0;collapsible=0;recursiveResize=0;expand=0;" vertex="1" parent="k-J_ichgHFrV_qxmjCFs-236">
          <mxGeometry x="235" width="365" height="31" as="geometry">
            <mxRectangle width="365" height="31" as="alternateBounds" />
          </mxGeometry>
        </mxCell>
        <mxCell id="k-J_ichgHFrV_qxmjCFs-248" value="string | &quot;&quot;" style="text;html=1;align=left;verticalAlign=middle;resizable=0;points=[];autosize=1;strokeColor=none;fillColor=none;" vertex="1" parent="k-J_ichgHFrV_qxmjCFs-238">
          <mxGeometry x="10" width="70" height="30" as="geometry" />
        </mxCell>
        <mxCell id="k-J_ichgHFrV_qxmjCFs-239" value="" style="shape=tableRow;horizontal=0;swimlaneHead=0;swimlaneBody=0;top=0;left=0;strokeColor=inherit;bottom=0;right=0;dropTarget=0;fontStyle=0;fillColor=none;points=[[0,0.5],[1,0.5]];portConstraint=eastwest;startSize=41;collapsible=0;recursiveResize=0;expand=0;" vertex="1" parent="k-J_ichgHFrV_qxmjCFs-229">
          <mxGeometry y="136" width="600" height="30" as="geometry" />
        </mxCell>
        <mxCell id="k-J_ichgHFrV_qxmjCFs-240" value="" style="swimlane;swimlaneHead=0;swimlaneBody=0;fontStyle=0;connectable=0;strokeColor=inherit;fillColor=none;startSize=0;collapsible=0;recursiveResize=0;expand=0;" vertex="1" parent="k-J_ichgHFrV_qxmjCFs-239">
          <mxGeometry x="41" width="194" height="30" as="geometry">
            <mxRectangle width="194" height="30" as="alternateBounds" />
          </mxGeometry>
        </mxCell>
        <mxCell id="k-J_ichgHFrV_qxmjCFs-249" value="onClick?" style="text;html=1;align=left;verticalAlign=middle;resizable=0;points=[];autosize=1;strokeColor=none;fillColor=none;" vertex="1" parent="k-J_ichgHFrV_qxmjCFs-240">
          <mxGeometry x="10" width="70" height="30" as="geometry" />
        </mxCell>
        <mxCell id="k-J_ichgHFrV_qxmjCFs-241" value="" style="swimlane;swimlaneHead=0;swimlaneBody=0;fontStyle=0;connectable=0;strokeColor=inherit;fillColor=none;startSize=0;collapsible=0;recursiveResize=0;expand=0;" vertex="1" parent="k-J_ichgHFrV_qxmjCFs-239">
          <mxGeometry x="235" width="365" height="30" as="geometry">
            <mxRectangle width="365" height="30" as="alternateBounds" />
          </mxGeometry>
        </mxCell>
        <mxCell id="k-J_ichgHFrV_qxmjCFs-250" value="(MouseEvent&amp;lt;HTMLArticleElement | HTMLDivElement) =&amp;gt; void" style="text;html=1;align=left;verticalAlign=middle;resizable=0;points=[];autosize=1;strokeColor=none;fillColor=none;" vertex="1" parent="k-J_ichgHFrV_qxmjCFs-241">
          <mxGeometry x="10" width="360" height="30" as="geometry" />
        </mxCell>
        <mxCell id="k-J_ichgHFrV_qxmjCFs-252" value="" style="shape=tableRow;horizontal=0;swimlaneHead=0;swimlaneBody=0;top=0;left=0;strokeColor=inherit;bottom=0;right=0;dropTarget=0;fontStyle=0;fillColor=none;points=[[0,0.5],[1,0.5]];portConstraint=eastwest;startSize=41;collapsible=0;recursiveResize=0;expand=0;" vertex="1" parent="k-J_ichgHFrV_qxmjCFs-229">
          <mxGeometry y="166" width="600" height="31" as="geometry" />
        </mxCell>
        <mxCell id="k-J_ichgHFrV_qxmjCFs-253" value="" style="swimlane;swimlaneHead=0;swimlaneBody=0;fontStyle=0;connectable=0;strokeColor=inherit;fillColor=none;startSize=0;collapsible=0;recursiveResize=0;expand=0;" vertex="1" parent="k-J_ichgHFrV_qxmjCFs-252">
          <mxGeometry x="41" width="194" height="31" as="geometry">
            <mxRectangle width="194" height="31" as="alternateBounds" />
          </mxGeometry>
        </mxCell>
        <mxCell id="k-J_ichgHFrV_qxmjCFs-254" value="tags" style="text;html=1;align=left;verticalAlign=middle;resizable=0;points=[];autosize=1;strokeColor=none;fillColor=none;" vertex="1" parent="k-J_ichgHFrV_qxmjCFs-253">
          <mxGeometry x="9" y="1" width="50" height="30" as="geometry" />
        </mxCell>
        <mxCell id="k-J_ichgHFrV_qxmjCFs-255" value="" style="swimlane;swimlaneHead=0;swimlaneBody=0;fontStyle=0;connectable=0;strokeColor=inherit;fillColor=none;startSize=0;collapsible=0;recursiveResize=0;expand=0;" vertex="1" parent="k-J_ichgHFrV_qxmjCFs-252">
          <mxGeometry x="235" width="365" height="31" as="geometry">
            <mxRectangle width="365" height="31" as="alternateBounds" />
          </mxGeometry>
        </mxCell>
        <mxCell id="k-J_ichgHFrV_qxmjCFs-256" value="string[ ] | [ ]" style="text;html=1;align=left;verticalAlign=middle;resizable=0;points=[];autosize=1;strokeColor=none;fillColor=none;" vertex="1" parent="k-J_ichgHFrV_qxmjCFs-255">
          <mxGeometry x="10" y="1" width="80" height="30" as="geometry" />
        </mxCell>
        <mxCell id="k-J_ichgHFrV_qxmjCFs-353" value="" style="shape=tableRow;horizontal=0;swimlaneHead=0;swimlaneBody=0;top=0;left=0;strokeColor=inherit;bottom=0;right=0;dropTarget=0;fontStyle=0;fillColor=none;points=[[0,0.5],[1,0.5]];portConstraint=eastwest;startSize=41;collapsible=0;recursiveResize=0;expand=0;" vertex="1" parent="k-J_ichgHFrV_qxmjCFs-229">
          <mxGeometry y="197" width="600" height="31" as="geometry" />
        </mxCell>
        <mxCell id="k-J_ichgHFrV_qxmjCFs-354" value="" style="swimlane;swimlaneHead=0;swimlaneBody=0;fontStyle=0;connectable=0;strokeColor=inherit;fillColor=none;startSize=0;collapsible=0;recursiveResize=0;expand=0;" vertex="1" parent="k-J_ichgHFrV_qxmjCFs-353">
          <mxGeometry x="41" width="194" height="31" as="geometry">
            <mxRectangle width="194" height="31" as="alternateBounds" />
          </mxGeometry>
        </mxCell>
        <mxCell id="k-J_ichgHFrV_qxmjCFs-355" value="url" style="text;html=1;align=left;verticalAlign=middle;resizable=0;points=[];autosize=1;strokeColor=none;fillColor=none;" vertex="1" parent="k-J_ichgHFrV_qxmjCFs-354">
          <mxGeometry x="9" y="1" width="40" height="30" as="geometry" />
        </mxCell>
        <mxCell id="k-J_ichgHFrV_qxmjCFs-356" value="" style="swimlane;swimlaneHead=0;swimlaneBody=0;fontStyle=0;connectable=0;strokeColor=inherit;fillColor=none;startSize=0;collapsible=0;recursiveResize=0;expand=0;" vertex="1" parent="k-J_ichgHFrV_qxmjCFs-353">
          <mxGeometry x="235" width="365" height="31" as="geometry">
            <mxRectangle width="365" height="31" as="alternateBounds" />
          </mxGeometry>
        </mxCell>
        <mxCell id="k-J_ichgHFrV_qxmjCFs-357" value="string" style="text;html=1;align=left;verticalAlign=middle;resizable=0;points=[];autosize=1;strokeColor=none;fillColor=none;" vertex="1" parent="k-J_ichgHFrV_qxmjCFs-356">
          <mxGeometry x="10" y="1" width="50" height="30" as="geometry" />
        </mxCell>
        <mxCell id="k-J_ichgHFrV_qxmjCFs-401" value="" style="shape=tableRow;horizontal=0;swimlaneHead=0;swimlaneBody=0;top=0;left=0;strokeColor=inherit;bottom=0;right=0;dropTarget=0;fontStyle=0;fillColor=none;points=[[0,0.5],[1,0.5]];portConstraint=eastwest;startSize=41;collapsible=0;recursiveResize=0;expand=0;" vertex="1" parent="k-J_ichgHFrV_qxmjCFs-229">
          <mxGeometry y="228" width="600" height="31" as="geometry" />
        </mxCell>
        <mxCell id="k-J_ichgHFrV_qxmjCFs-402" value="" style="swimlane;swimlaneHead=0;swimlaneBody=0;fontStyle=0;connectable=0;strokeColor=inherit;fillColor=none;startSize=0;collapsible=0;recursiveResize=0;expand=0;" vertex="1" parent="k-J_ichgHFrV_qxmjCFs-401">
          <mxGeometry x="41" width="194" height="31" as="geometry">
            <mxRectangle width="194" height="31" as="alternateBounds" />
          </mxGeometry>
        </mxCell>
        <mxCell id="k-J_ichgHFrV_qxmjCFs-403" value="projectRef" style="text;html=1;align=left;verticalAlign=middle;resizable=0;points=[];autosize=1;strokeColor=none;fillColor=none;" vertex="1" parent="k-J_ichgHFrV_qxmjCFs-402">
          <mxGeometry x="9" y="1" width="80" height="30" as="geometry" />
        </mxCell>
        <mxCell id="k-J_ichgHFrV_qxmjCFs-404" value="" style="swimlane;swimlaneHead=0;swimlaneBody=0;fontStyle=0;connectable=0;strokeColor=inherit;fillColor=none;startSize=0;collapsible=0;recursiveResize=0;expand=0;" vertex="1" parent="k-J_ichgHFrV_qxmjCFs-401">
          <mxGeometry x="235" width="365" height="31" as="geometry">
            <mxRectangle width="365" height="31" as="alternateBounds" />
          </mxGeometry>
        </mxCell>
        <mxCell id="k-J_ichgHFrV_qxmjCFs-405" value="HTMLArticleElement" style="text;html=1;align=left;verticalAlign=middle;resizable=0;points=[];autosize=1;strokeColor=none;fillColor=none;" vertex="1" parent="k-J_ichgHFrV_qxmjCFs-404">
          <mxGeometry x="10" y="1" width="130" height="30" as="geometry" />
        </mxCell>
        <mxCell id="k-J_ichgHFrV_qxmjCFs-261" style="edgeStyle=orthogonalEdgeStyle;rounded=0;orthogonalLoop=1;jettySize=auto;html=1;entryX=0;entryY=0.337;entryDx=0;entryDy=0;entryPerimeter=0;" edge="1" parent="1" source="k-J_ichgHFrV_qxmjCFs-207" target="k-J_ichgHFrV_qxmjCFs-258">
          <mxGeometry relative="1" as="geometry">
            <mxPoint x="4580" y="990" as="targetPoint" />
          </mxGeometry>
        </mxCell>
        <mxCell id="k-J_ichgHFrV_qxmjCFs-273" value="Homepage - SectionFeaturedImages" style="text;strokeColor=none;fillColor=none;html=1;fontSize=24;fontStyle=1;verticalAlign=middle;align=left;" vertex="1" parent="1">
          <mxGeometry x="41" y="1500" width="419" height="40" as="geometry" />
        </mxCell>
        <mxCell id="k-J_ichgHFrV_qxmjCFs-326" style="edgeStyle=orthogonalEdgeStyle;rounded=0;orthogonalLoop=1;jettySize=auto;html=1;entryX=0.001;entryY=0.107;entryDx=0;entryDy=0;entryPerimeter=0;" edge="1" parent="1" source="k-J_ichgHFrV_qxmjCFs-286" target="k-J_ichgHFrV_qxmjCFs-299">
          <mxGeometry relative="1" as="geometry" />
        </mxCell>
        <mxCell id="k-J_ichgHFrV_qxmjCFs-358" value="" style="strokeWidth=1;shadow=0;dashed=0;align=center;html=1;shape=mxgraph.mockup.containers.browserWindow;rSize=0;strokeColor=#666666;strokeColor2=#008cff;strokeColor3=#c4c4c4;mainText=,;recursiveResize=0;" vertex="1" parent="1">
          <mxGeometry x="1830" y="1570" width="1020" height="565" as="geometry" />
        </mxCell>
        <mxCell id="k-J_ichgHFrV_qxmjCFs-359" value="Page 1" style="strokeWidth=1;shadow=0;dashed=0;align=center;html=1;shape=mxgraph.mockup.containers.anchor;fontSize=17;fontColor=#666666;align=left;whiteSpace=wrap;" vertex="1" parent="k-J_ichgHFrV_qxmjCFs-358">
          <mxGeometry x="60" y="12" width="110" height="26" as="geometry" />
        </mxCell>
        <mxCell id="k-J_ichgHFrV_qxmjCFs-360" value="https://www.draw.io" style="strokeWidth=1;shadow=0;dashed=0;align=center;html=1;shape=mxgraph.mockup.containers.anchor;rSize=0;fontSize=17;fontColor=#666666;align=left;" vertex="1" parent="k-J_ichgHFrV_qxmjCFs-358">
          <mxGeometry x="130" y="60" width="250" height="26" as="geometry" />
        </mxCell>
        <mxCell id="k-J_ichgHFrV_qxmjCFs-361" value="" style="rounded=0;whiteSpace=wrap;html=1;strokeWidth=2;" vertex="1" parent="k-J_ichgHFrV_qxmjCFs-358">
          <mxGeometry y="110" width="1020" height="60" as="geometry" />
        </mxCell>
        <mxCell id="k-J_ichgHFrV_qxmjCFs-362" value="" style="group;strokeWidth=2;fillColor=#FFFFFF;strokeColor=#000000;" vertex="1" connectable="0" parent="k-J_ichgHFrV_qxmjCFs-358">
          <mxGeometry x="570" y="120" width="290" height="40" as="geometry" />
        </mxCell>
        <mxCell id="k-J_ichgHFrV_qxmjCFs-363" value="Link" style="html=1;shadow=0;dashed=0;shape=mxgraph.bootstrap.rrect;rSize=5;strokeColor=none;strokeWidth=1;fillColor=none;fontColor=#000000;whiteSpace=wrap;align=center;verticalAlign=middle;spacingLeft=0;fontStyle=0;fontSize=16;spacing=5;fontFamily=Helvetica;" vertex="1" parent="k-J_ichgHFrV_qxmjCFs-362">
          <mxGeometry x="152" y="4" width="60" height="32" as="geometry" />
        </mxCell>
        <mxCell id="k-J_ichgHFrV_qxmjCFs-364" value="Link" style="html=1;shadow=0;dashed=0;shape=mxgraph.bootstrap.rrect;rSize=5;strokeColor=none;strokeWidth=1;fillColor=none;fontColor=#000000;whiteSpace=wrap;align=center;verticalAlign=middle;spacingLeft=0;fontStyle=0;fontSize=16;spacing=5;fontFamily=Helvetica;" vertex="1" parent="k-J_ichgHFrV_qxmjCFs-362">
          <mxGeometry x="225" y="4" width="60" height="32" as="geometry" />
        </mxCell>
        <mxCell id="k-J_ichgHFrV_qxmjCFs-365" value="Link" style="html=1;shadow=0;dashed=0;shape=mxgraph.bootstrap.rrect;rSize=5;strokeColor=none;strokeWidth=1;fillColor=none;fontColor=#000000;whiteSpace=wrap;align=center;verticalAlign=middle;spacingLeft=0;fontStyle=0;fontSize=16;spacing=5;fontFamily=Helvetica;" vertex="1" parent="k-J_ichgHFrV_qxmjCFs-362">
          <mxGeometry x="78" y="4" width="60" height="32" as="geometry" />
        </mxCell>
        <mxCell id="k-J_ichgHFrV_qxmjCFs-366" value="&lt;font&gt;Link&lt;/font&gt;" style="html=1;shadow=0;dashed=0;shape=mxgraph.bootstrap.rrect;rSize=5;strokeColor=none;strokeWidth=1;fillColor=none;fontColor=#000000;whiteSpace=wrap;align=center;verticalAlign=middle;spacingLeft=0;fontStyle=0;fontSize=16;spacing=5;fontFamily=Helvetica;" vertex="1" parent="k-J_ichgHFrV_qxmjCFs-362">
          <mxGeometry x="5" y="4" width="60" height="32" as="geometry" />
        </mxCell>
        <mxCell id="k-J_ichgHFrV_qxmjCFs-367" value="&lt;font style=&quot;font-size: 16px;&quot;&gt;Vanessa Coles&lt;/font&gt;" style="text;strokeColor=none;fillColor=none;align=center;verticalAlign=top;spacingLeft=4;spacingRight=4;overflow=hidden;rotatable=0;points=[[0,0.5],[1,0.5]];portConstraint=eastwest;whiteSpace=wrap;html=1;" vertex="1" parent="k-J_ichgHFrV_qxmjCFs-358">
          <mxGeometry x="41" y="125" width="129" height="26" as="geometry" />
        </mxCell>
        <mxCell id="k-J_ichgHFrV_qxmjCFs-368" value="&lt;font style=&quot;font-size: 14px;&quot;&gt;ThemeSwitcher&lt;/font&gt;" style="rounded=0;whiteSpace=wrap;html=1;strokeWidth=2;" vertex="1" parent="k-J_ichgHFrV_qxmjCFs-358">
          <mxGeometry x="878" y="120" width="120" height="40" as="geometry" />
        </mxCell>
        <mxCell id="k-J_ichgHFrV_qxmjCFs-370" value="" style="rounded=0;whiteSpace=wrap;html=1;strokeWidth=2;glass=0;container=1;" vertex="1" parent="k-J_ichgHFrV_qxmjCFs-358">
          <mxGeometry y="490" width="1020" height="75" as="geometry" />
        </mxCell>
        <mxCell id="k-J_ichgHFrV_qxmjCFs-371" value="&lt;font style=&quot;font-size: 14px;&quot;&gt;SiteCopyright&lt;/font&gt;" style="rounded=0;whiteSpace=wrap;html=1;strokeWidth=2;" vertex="1" parent="k-J_ichgHFrV_qxmjCFs-370">
          <mxGeometry x="18" y="12.5" width="322" height="45" as="geometry" />
        </mxCell>
        <mxCell id="k-J_ichgHFrV_qxmjCFs-379" value="" style="rounded=0;whiteSpace=wrap;html=1;strokeWidth=2;container=1;" vertex="1" parent="k-J_ichgHFrV_qxmjCFs-370">
          <mxGeometry x="770" y="14" width="230" height="50" as="geometry" />
        </mxCell>
        <mxCell id="k-J_ichgHFrV_qxmjCFs-376" value="" style="group" vertex="1" connectable="0" parent="k-J_ichgHFrV_qxmjCFs-370">
          <mxGeometry x="770" y="20" width="230" height="40" as="geometry" />
        </mxCell>
        <mxCell id="k-J_ichgHFrV_qxmjCFs-380" value="" style="group" vertex="1" connectable="0" parent="k-J_ichgHFrV_qxmjCFs-376">
          <mxGeometry x="10" y="3" width="220" height="36" as="geometry" />
        </mxCell>
        <mxCell id="k-J_ichgHFrV_qxmjCFs-372" value="" style="whiteSpace=wrap;html=1;aspect=fixed;strokeWidth=2;" vertex="1" parent="k-J_ichgHFrV_qxmjCFs-380">
          <mxGeometry y="2" width="27.9203187250996" height="27.9203187250996" as="geometry" />
        </mxCell>
        <mxCell id="k-J_ichgHFrV_qxmjCFs-373" value="" style="whiteSpace=wrap;html=1;aspect=fixed;strokeWidth=2;" vertex="1" parent="k-J_ichgHFrV_qxmjCFs-380">
          <mxGeometry x="61.64251207729469" y="2" width="27.9203187250996" height="27.9203187250996" as="geometry" />
        </mxCell>
        <mxCell id="k-J_ichgHFrV_qxmjCFs-374" value="" style="whiteSpace=wrap;html=1;aspect=fixed;strokeWidth=2;" vertex="1" parent="k-J_ichgHFrV_qxmjCFs-380">
          <mxGeometry x="122.22222222222221" y="2" width="27.9203187250996" height="27.9203187250996" as="geometry" />
        </mxCell>
        <mxCell id="k-J_ichgHFrV_qxmjCFs-375" value="" style="whiteSpace=wrap;html=1;aspect=fixed;strokeWidth=2;" vertex="1" parent="k-J_ichgHFrV_qxmjCFs-380">
          <mxGeometry x="183.8647342995169" y="2" width="27.9203187250996" height="27.9203187250996" as="geometry" />
        </mxCell>
        <mxCell id="k-J_ichgHFrV_qxmjCFs-378" value="&lt;font style=&quot;font-size: 16px;&quot;&gt;&lt;b&gt;SiteFooter&lt;/b&gt;&lt;/font&gt;" style="rounded=0;whiteSpace=wrap;html=1;strokeWidth=2;" vertex="1" parent="k-J_ichgHFrV_qxmjCFs-358">
          <mxGeometry y="450" width="1020" height="40" as="geometry" />
        </mxCell>
        <mxCell id="k-J_ichgHFrV_qxmjCFs-369" value="Homepage - Footer" style="text;strokeColor=none;fillColor=none;html=1;fontSize=24;fontStyle=1;verticalAlign=middle;align=left;" vertex="1" parent="1">
          <mxGeometry x="1837" y="1500" width="233" height="40" as="geometry" />
        </mxCell>
        <mxCell id="k-J_ichgHFrV_qxmjCFs-381" value="SocialIcons [style=&quot;footer&quot;]" style="swimlane;whiteSpace=wrap;html=1;startSize=30;" vertex="1" parent="1">
          <mxGeometry x="2910" y="2063.96" width="281" height="70" as="geometry" />
        </mxCell>
        <mxCell id="k-J_ichgHFrV_qxmjCFs-383" style="edgeStyle=orthogonalEdgeStyle;rounded=0;orthogonalLoop=1;jettySize=auto;html=1;entryX=0.005;entryY=0.05;entryDx=0;entryDy=0;entryPerimeter=0;" edge="1" parent="1" source="k-J_ichgHFrV_qxmjCFs-375" target="k-J_ichgHFrV_qxmjCFs-381">
          <mxGeometry relative="1" as="geometry" />
        </mxCell>
        <mxCell id="k-J_ichgHFrV_qxmjCFs-385" style="edgeStyle=orthogonalEdgeStyle;rounded=0;orthogonalLoop=1;jettySize=auto;html=1;entryX=0.5;entryY=1;entryDx=0;entryDy=0;" edge="1" parent="1" source="k-J_ichgHFrV_qxmjCFs-384" target="GyT0Gai-QQJEyU2q_moY-22">
          <mxGeometry relative="1" as="geometry" />
        </mxCell>
        <mxCell id="k-J_ichgHFrV_qxmjCFs-386" style="edgeStyle=orthogonalEdgeStyle;rounded=0;orthogonalLoop=1;jettySize=auto;html=1;entryX=0.5;entryY=1;entryDx=0;entryDy=0;" edge="1" parent="1" source="k-J_ichgHFrV_qxmjCFs-384" target="GyT0Gai-QQJEyU2q_moY-23">
          <mxGeometry relative="1" as="geometry" />
        </mxCell>
        <mxCell id="k-J_ichgHFrV_qxmjCFs-387" style="edgeStyle=orthogonalEdgeStyle;rounded=0;orthogonalLoop=1;jettySize=auto;html=1;entryX=0.5;entryY=1;entryDx=0;entryDy=0;" edge="1" parent="1" source="k-J_ichgHFrV_qxmjCFs-384" target="GyT0Gai-QQJEyU2q_moY-24">
          <mxGeometry relative="1" as="geometry" />
        </mxCell>
        <mxCell id="k-J_ichgHFrV_qxmjCFs-389" style="edgeStyle=orthogonalEdgeStyle;rounded=0;orthogonalLoop=1;jettySize=auto;html=1;entryX=0.5;entryY=1;entryDx=0;entryDy=0;" edge="1" parent="1" source="k-J_ichgHFrV_qxmjCFs-384" target="GyT0Gai-QQJEyU2q_moY-25">
          <mxGeometry relative="1" as="geometry" />
        </mxCell>
        <mxCell id="k-J_ichgHFrV_qxmjCFs-384" value="SocialIconButton" style="rounded=0;whiteSpace=wrap;html=1;strokeWidth=2;" vertex="1" parent="1">
          <mxGeometry x="500" y="773" width="120" height="37" as="geometry" />
        </mxCell>
        <mxCell id="k-J_ichgHFrV_qxmjCFs-299" value="Interface FeaturedImageCard" style="shape=table;childLayout=tableLayout;startSize=40;collapsible=0;recursiveResize=0;expand=0;fontSize=14;fontStyle=1;strokeWidth=2;" vertex="1" parent="1">
          <mxGeometry x="1180" y="2300" width="560" height="318" as="geometry" />
        </mxCell>
        <mxCell id="k-J_ichgHFrV_qxmjCFs-300" value="" style="shape=tableRow;horizontal=0;swimlaneHead=0;swimlaneBody=0;top=0;left=0;strokeColor=inherit;bottom=0;right=0;dropTarget=0;fontStyle=0;fillColor=none;points=[[0,0.5],[1,0.5]];portConstraint=eastwest;startSize=41;collapsible=0;recursiveResize=0;expand=0;" vertex="1" parent="k-J_ichgHFrV_qxmjCFs-299">
          <mxGeometry y="40" width="560" height="35" as="geometry" />
        </mxCell>
        <mxCell id="k-J_ichgHFrV_qxmjCFs-301" value="properties" style="swimlane;swimlaneHead=0;swimlaneBody=0;fontStyle=0;strokeColor=inherit;connectable=0;fillColor=none;startSize=40;collapsible=0;recursiveResize=0;expand=0;align=center;" vertex="1" parent="k-J_ichgHFrV_qxmjCFs-300">
          <mxGeometry x="41" width="159" height="35" as="geometry">
            <mxRectangle width="159" height="35" as="alternateBounds" />
          </mxGeometry>
        </mxCell>
        <mxCell id="k-J_ichgHFrV_qxmjCFs-302" value="values" style="swimlane;swimlaneHead=0;swimlaneBody=0;fontStyle=0;strokeColor=inherit;connectable=0;fillColor=none;startSize=40;collapsible=0;recursiveResize=0;expand=0;" vertex="1" parent="k-J_ichgHFrV_qxmjCFs-300">
          <mxGeometry x="200" width="360" height="35" as="geometry">
            <mxRectangle width="360" height="35" as="alternateBounds" />
          </mxGeometry>
        </mxCell>
        <mxCell id="k-J_ichgHFrV_qxmjCFs-303" value="" style="shape=tableRow;horizontal=0;swimlaneHead=0;swimlaneBody=0;top=0;left=0;strokeColor=inherit;bottom=0;right=0;dropTarget=0;fontStyle=0;fillColor=none;points=[[0,0.5],[1,0.5]];portConstraint=eastwest;startSize=41;collapsible=0;recursiveResize=0;expand=0;" vertex="1" parent="k-J_ichgHFrV_qxmjCFs-299">
          <mxGeometry y="75" width="560" height="30" as="geometry" />
        </mxCell>
        <mxCell id="k-J_ichgHFrV_qxmjCFs-304" value="" style="swimlane;swimlaneHead=0;swimlaneBody=0;fontStyle=0;connectable=0;strokeColor=inherit;fillColor=none;startSize=0;collapsible=0;recursiveResize=0;expand=0;" vertex="1" parent="k-J_ichgHFrV_qxmjCFs-303">
          <mxGeometry x="41" width="159" height="30" as="geometry">
            <mxRectangle width="159" height="30" as="alternateBounds" />
          </mxGeometry>
        </mxCell>
        <mxCell id="k-J_ichgHFrV_qxmjCFs-305" value="id" style="text;html=1;align=left;verticalAlign=middle;resizable=0;points=[];autosize=1;strokeColor=none;fillColor=none;" vertex="1" parent="k-J_ichgHFrV_qxmjCFs-304">
          <mxGeometry x="8" width="30" height="30" as="geometry" />
        </mxCell>
        <mxCell id="k-J_ichgHFrV_qxmjCFs-306" value="" style="swimlane;swimlaneHead=0;swimlaneBody=0;fontStyle=0;connectable=0;strokeColor=inherit;fillColor=none;startSize=0;collapsible=0;recursiveResize=0;expand=0;" vertex="1" parent="k-J_ichgHFrV_qxmjCFs-303">
          <mxGeometry x="200" width="360" height="30" as="geometry">
            <mxRectangle width="360" height="30" as="alternateBounds" />
          </mxGeometry>
        </mxCell>
        <mxCell id="k-J_ichgHFrV_qxmjCFs-307" value="string" style="text;html=1;align=left;verticalAlign=middle;resizable=0;points=[];autosize=1;strokeColor=none;fillColor=none;" vertex="1" parent="k-J_ichgHFrV_qxmjCFs-306">
          <mxGeometry x="10" width="50" height="30" as="geometry" />
        </mxCell>
        <mxCell id="k-J_ichgHFrV_qxmjCFs-308" value="" style="shape=tableRow;horizontal=0;swimlaneHead=0;swimlaneBody=0;top=0;left=0;strokeColor=inherit;bottom=0;right=0;dropTarget=0;fontStyle=0;fillColor=none;points=[[0,0.5],[1,0.5]];portConstraint=eastwest;startSize=41;collapsible=0;recursiveResize=0;expand=0;" vertex="1" parent="k-J_ichgHFrV_qxmjCFs-299">
          <mxGeometry y="105" width="560" height="31" as="geometry" />
        </mxCell>
        <mxCell id="k-J_ichgHFrV_qxmjCFs-309" value="" style="swimlane;swimlaneHead=0;swimlaneBody=0;fontStyle=0;connectable=0;strokeColor=inherit;fillColor=none;startSize=0;collapsible=0;recursiveResize=0;expand=0;" vertex="1" parent="k-J_ichgHFrV_qxmjCFs-308">
          <mxGeometry x="41" width="159" height="31" as="geometry">
            <mxRectangle width="159" height="31" as="alternateBounds" />
          </mxGeometry>
        </mxCell>
        <mxCell id="k-J_ichgHFrV_qxmjCFs-310" value="filetype" style="text;html=1;align=left;verticalAlign=middle;resizable=0;points=[];autosize=1;strokeColor=none;fillColor=none;fontSize=12;" vertex="1" parent="k-J_ichgHFrV_qxmjCFs-309">
          <mxGeometry x="8" y="1" width="60" height="30" as="geometry" />
        </mxCell>
        <mxCell id="k-J_ichgHFrV_qxmjCFs-311" value="" style="swimlane;swimlaneHead=0;swimlaneBody=0;fontStyle=0;connectable=0;strokeColor=inherit;fillColor=none;startSize=0;collapsible=0;recursiveResize=0;expand=0;" vertex="1" parent="k-J_ichgHFrV_qxmjCFs-308">
          <mxGeometry x="200" width="360" height="31" as="geometry">
            <mxRectangle width="360" height="31" as="alternateBounds" />
          </mxGeometry>
        </mxCell>
        <mxCell id="k-J_ichgHFrV_qxmjCFs-312" value="string" style="text;html=1;align=left;verticalAlign=middle;resizable=0;points=[];autosize=1;strokeColor=none;fillColor=none;" vertex="1" parent="k-J_ichgHFrV_qxmjCFs-311">
          <mxGeometry x="10" width="50" height="30" as="geometry" />
        </mxCell>
        <mxCell id="k-J_ichgHFrV_qxmjCFs-313" value="" style="shape=tableRow;horizontal=0;swimlaneHead=0;swimlaneBody=0;top=0;left=0;strokeColor=inherit;bottom=0;right=0;dropTarget=0;fontStyle=0;fillColor=none;points=[[0,0.5],[1,0.5]];portConstraint=eastwest;startSize=41;collapsible=0;recursiveResize=0;expand=0;" vertex="1" parent="k-J_ichgHFrV_qxmjCFs-299">
          <mxGeometry y="136" width="560" height="30" as="geometry" />
        </mxCell>
        <mxCell id="k-J_ichgHFrV_qxmjCFs-314" value="" style="swimlane;swimlaneHead=0;swimlaneBody=0;fontStyle=0;connectable=0;strokeColor=inherit;fillColor=none;startSize=0;collapsible=0;recursiveResize=0;expand=0;" vertex="1" parent="k-J_ichgHFrV_qxmjCFs-313">
          <mxGeometry x="41" width="159" height="30" as="geometry">
            <mxRectangle width="159" height="30" as="alternateBounds" />
          </mxGeometry>
        </mxCell>
        <mxCell id="k-J_ichgHFrV_qxmjCFs-336" value="imageRef" style="text;html=1;align=left;verticalAlign=middle;resizable=0;points=[];autosize=1;strokeColor=none;fillColor=none;" vertex="1" parent="k-J_ichgHFrV_qxmjCFs-314">
          <mxGeometry x="8" width="70" height="30" as="geometry" />
        </mxCell>
        <mxCell id="k-J_ichgHFrV_qxmjCFs-316" value="" style="swimlane;swimlaneHead=0;swimlaneBody=0;fontStyle=0;connectable=0;strokeColor=inherit;fillColor=none;startSize=0;collapsible=0;recursiveResize=0;expand=0;" vertex="1" parent="k-J_ichgHFrV_qxmjCFs-313">
          <mxGeometry x="200" width="360" height="30" as="geometry">
            <mxRectangle width="360" height="30" as="alternateBounds" />
          </mxGeometry>
        </mxCell>
        <mxCell id="k-J_ichgHFrV_qxmjCFs-338" value="HTMLImageElement" style="text;html=1;align=left;verticalAlign=middle;resizable=0;points=[];autosize=1;strokeColor=none;fillColor=none;" vertex="1" parent="k-J_ichgHFrV_qxmjCFs-316">
          <mxGeometry x="10" width="130" height="30" as="geometry" />
        </mxCell>
        <mxCell id="k-J_ichgHFrV_qxmjCFs-318" value="" style="shape=tableRow;horizontal=0;swimlaneHead=0;swimlaneBody=0;top=0;left=0;strokeColor=inherit;bottom=0;right=0;dropTarget=0;fontStyle=0;fillColor=none;points=[[0,0.5],[1,0.5]];portConstraint=eastwest;startSize=41;collapsible=0;recursiveResize=0;expand=0;" vertex="1" parent="k-J_ichgHFrV_qxmjCFs-299">
          <mxGeometry y="166" width="560" height="31" as="geometry" />
        </mxCell>
        <mxCell id="k-J_ichgHFrV_qxmjCFs-319" value="" style="swimlane;swimlaneHead=0;swimlaneBody=0;fontStyle=0;connectable=0;strokeColor=inherit;fillColor=none;startSize=0;collapsible=0;recursiveResize=0;expand=0;" vertex="1" parent="k-J_ichgHFrV_qxmjCFs-318">
          <mxGeometry x="41" width="159" height="31" as="geometry">
            <mxRectangle width="159" height="31" as="alternateBounds" />
          </mxGeometry>
        </mxCell>
        <mxCell id="k-J_ichgHFrV_qxmjCFs-350" value="name" style="text;html=1;align=left;verticalAlign=middle;resizable=0;points=[];autosize=1;strokeColor=none;fillColor=none;" vertex="1" parent="k-J_ichgHFrV_qxmjCFs-319">
          <mxGeometry x="8" width="50" height="30" as="geometry" />
        </mxCell>
        <mxCell id="k-J_ichgHFrV_qxmjCFs-321" value="" style="swimlane;swimlaneHead=0;swimlaneBody=0;fontStyle=0;connectable=0;strokeColor=inherit;fillColor=none;startSize=0;collapsible=0;recursiveResize=0;expand=0;" vertex="1" parent="k-J_ichgHFrV_qxmjCFs-318">
          <mxGeometry x="200" width="360" height="31" as="geometry">
            <mxRectangle width="360" height="31" as="alternateBounds" />
          </mxGeometry>
        </mxCell>
        <mxCell id="k-J_ichgHFrV_qxmjCFs-317" value="string" style="text;html=1;align=left;verticalAlign=middle;resizable=0;points=[];autosize=1;strokeColor=none;fillColor=none;" vertex="1" parent="k-J_ichgHFrV_qxmjCFs-321">
          <mxGeometry x="10" width="50" height="30" as="geometry" />
        </mxCell>
        <mxCell id="k-J_ichgHFrV_qxmjCFs-328" value="" style="shape=tableRow;horizontal=0;swimlaneHead=0;swimlaneBody=0;top=0;left=0;strokeColor=inherit;bottom=0;right=0;dropTarget=0;fontStyle=0;fillColor=none;points=[[0,0.5],[1,0.5]];portConstraint=eastwest;startSize=41;collapsible=0;recursiveResize=0;expand=0;" vertex="1" parent="k-J_ichgHFrV_qxmjCFs-299">
          <mxGeometry y="197" width="560" height="31" as="geometry" />
        </mxCell>
        <mxCell id="k-J_ichgHFrV_qxmjCFs-329" value="" style="swimlane;swimlaneHead=0;swimlaneBody=0;fontStyle=0;connectable=0;strokeColor=inherit;fillColor=none;startSize=0;collapsible=0;recursiveResize=0;expand=0;" vertex="1" parent="k-J_ichgHFrV_qxmjCFs-328">
          <mxGeometry x="41" width="159" height="31" as="geometry">
            <mxRectangle width="159" height="31" as="alternateBounds" />
          </mxGeometry>
        </mxCell>
        <mxCell id="k-J_ichgHFrV_qxmjCFs-351" value="isActive?" style="text;html=1;align=left;verticalAlign=middle;resizable=0;points=[];autosize=1;strokeColor=none;fillColor=none;" vertex="1" parent="k-J_ichgHFrV_qxmjCFs-329">
          <mxGeometry x="8" y="1.1300000000001091" width="70" height="30" as="geometry" />
        </mxCell>
        <mxCell id="k-J_ichgHFrV_qxmjCFs-331" value="" style="swimlane;swimlaneHead=0;swimlaneBody=0;fontStyle=0;connectable=0;strokeColor=inherit;fillColor=none;startSize=0;collapsible=0;recursiveResize=0;expand=0;" vertex="1" parent="k-J_ichgHFrV_qxmjCFs-328">
          <mxGeometry x="200" width="360" height="31" as="geometry">
            <mxRectangle width="360" height="31" as="alternateBounds" />
          </mxGeometry>
        </mxCell>
        <mxCell id="k-J_ichgHFrV_qxmjCFs-352" value="boolean" style="text;html=1;align=left;verticalAlign=middle;resizable=0;points=[];autosize=1;strokeColor=none;fillColor=none;" vertex="1" parent="k-J_ichgHFrV_qxmjCFs-331">
          <mxGeometry x="10" width="70" height="30" as="geometry" />
        </mxCell>
        <mxCell id="k-J_ichgHFrV_qxmjCFs-334" value="" style="shape=tableRow;horizontal=0;swimlaneHead=0;swimlaneBody=0;top=0;left=0;strokeColor=inherit;bottom=0;right=0;dropTarget=0;fontStyle=0;fillColor=none;points=[[0,0.5],[1,0.5]];portConstraint=eastwest;startSize=41;collapsible=0;recursiveResize=0;expand=0;" vertex="1" parent="k-J_ichgHFrV_qxmjCFs-299">
          <mxGeometry y="228" width="560" height="30" as="geometry" />
        </mxCell>
        <mxCell id="k-J_ichgHFrV_qxmjCFs-335" value="" style="swimlane;swimlaneHead=0;swimlaneBody=0;fontStyle=0;connectable=0;strokeColor=inherit;fillColor=none;startSize=0;collapsible=0;recursiveResize=0;expand=0;" vertex="1" parent="k-J_ichgHFrV_qxmjCFs-334">
          <mxGeometry x="41" width="159" height="30" as="geometry">
            <mxRectangle width="159" height="30" as="alternateBounds" />
          </mxGeometry>
        </mxCell>
        <mxCell id="k-J_ichgHFrV_qxmjCFs-341" value="onClick?" style="text;html=1;align=left;verticalAlign=middle;resizable=0;points=[];autosize=1;strokeColor=none;fillColor=none;" vertex="1" parent="k-J_ichgHFrV_qxmjCFs-335">
          <mxGeometry x="8" y="-8.881784197001252e-16" width="70" height="30" as="geometry" />
        </mxCell>
        <mxCell id="k-J_ichgHFrV_qxmjCFs-337" value="" style="swimlane;swimlaneHead=0;swimlaneBody=0;fontStyle=0;connectable=0;strokeColor=inherit;fillColor=none;startSize=0;collapsible=0;recursiveResize=0;expand=0;" vertex="1" parent="k-J_ichgHFrV_qxmjCFs-334">
          <mxGeometry x="200" width="360" height="30" as="geometry">
            <mxRectangle width="360" height="30" as="alternateBounds" />
          </mxGeometry>
        </mxCell>
        <mxCell id="k-J_ichgHFrV_qxmjCFs-343" value="(MouseEvent&amp;lt;HTMLImageElement | HTMLElement&amp;gt;) =&amp;gt; void;" style="text;html=1;align=left;verticalAlign=middle;resizable=0;points=[];autosize=1;strokeColor=none;fillColor=none;" vertex="1" parent="k-J_ichgHFrV_qxmjCFs-337">
          <mxGeometry x="10" y="0.129999999999999" width="350" height="30" as="geometry" />
        </mxCell>
        <mxCell id="k-J_ichgHFrV_qxmjCFs-339" value="" style="shape=tableRow;horizontal=0;swimlaneHead=0;swimlaneBody=0;top=0;left=0;strokeColor=inherit;bottom=0;right=0;dropTarget=0;fontStyle=0;fillColor=none;points=[[0,0.5],[1,0.5]];portConstraint=eastwest;startSize=41;collapsible=0;recursiveResize=0;expand=0;" vertex="1" parent="k-J_ichgHFrV_qxmjCFs-299">
          <mxGeometry y="258" width="560" height="30" as="geometry" />
        </mxCell>
        <mxCell id="k-J_ichgHFrV_qxmjCFs-340" value="" style="swimlane;swimlaneHead=0;swimlaneBody=0;fontStyle=0;connectable=0;strokeColor=inherit;fillColor=none;startSize=0;collapsible=0;recursiveResize=0;expand=0;" vertex="1" parent="k-J_ichgHFrV_qxmjCFs-339">
          <mxGeometry x="41" width="159" height="30" as="geometry">
            <mxRectangle width="159" height="30" as="alternateBounds" />
          </mxGeometry>
        </mxCell>
        <mxCell id="k-J_ichgHFrV_qxmjCFs-346" value="src" style="text;html=1;align=left;verticalAlign=middle;resizable=0;points=[];autosize=1;strokeColor=none;fillColor=none;" vertex="1" parent="k-J_ichgHFrV_qxmjCFs-340">
          <mxGeometry x="9" width="40" height="30" as="geometry" />
        </mxCell>
        <mxCell id="k-J_ichgHFrV_qxmjCFs-342" value="" style="swimlane;swimlaneHead=0;swimlaneBody=0;fontStyle=0;connectable=0;strokeColor=inherit;fillColor=none;startSize=0;collapsible=0;recursiveResize=0;expand=0;" vertex="1" parent="k-J_ichgHFrV_qxmjCFs-339">
          <mxGeometry x="200" width="360" height="30" as="geometry">
            <mxRectangle width="360" height="30" as="alternateBounds" />
          </mxGeometry>
        </mxCell>
        <mxCell id="k-J_ichgHFrV_qxmjCFs-348" value="string" style="text;html=1;align=left;verticalAlign=middle;resizable=0;points=[];autosize=1;strokeColor=none;fillColor=none;" vertex="1" parent="k-J_ichgHFrV_qxmjCFs-342">
          <mxGeometry x="10" width="50" height="30" as="geometry" />
        </mxCell>
        <mxCell id="k-J_ichgHFrV_qxmjCFs-344" value="" style="shape=tableRow;horizontal=0;swimlaneHead=0;swimlaneBody=0;top=0;left=0;strokeColor=inherit;bottom=0;right=0;dropTarget=0;fontStyle=0;fillColor=none;points=[[0,0.5],[1,0.5]];portConstraint=eastwest;startSize=41;collapsible=0;recursiveResize=0;expand=0;" vertex="1" parent="k-J_ichgHFrV_qxmjCFs-299">
          <mxGeometry y="288" width="560" height="30" as="geometry" />
        </mxCell>
        <mxCell id="k-J_ichgHFrV_qxmjCFs-345" value="" style="swimlane;swimlaneHead=0;swimlaneBody=0;fontStyle=0;connectable=0;strokeColor=inherit;fillColor=none;startSize=0;collapsible=0;recursiveResize=0;expand=0;" vertex="1" parent="k-J_ichgHFrV_qxmjCFs-344">
          <mxGeometry x="41" width="159" height="30" as="geometry">
            <mxRectangle width="159" height="30" as="alternateBounds" />
          </mxGeometry>
        </mxCell>
        <mxCell id="k-J_ichgHFrV_qxmjCFs-347" value="" style="swimlane;swimlaneHead=0;swimlaneBody=0;fontStyle=0;connectable=0;strokeColor=inherit;fillColor=none;startSize=0;collapsible=0;recursiveResize=0;expand=0;" vertex="1" parent="k-J_ichgHFrV_qxmjCFs-344">
          <mxGeometry x="200" width="360" height="30" as="geometry">
            <mxRectangle width="360" height="30" as="alternateBounds" />
          </mxGeometry>
        </mxCell>
        <mxCell id="k-J_ichgHFrV_qxmjCFs-496" value="&lt;font style=&quot;font-size: 14px;&quot;&gt;FeaturedProjectCard&amp;nbsp;&lt;/font&gt;" style="swimlane;whiteSpace=wrap;html=1;startSize=40;strokeWidth=2;" vertex="1" parent="1">
          <mxGeometry x="4910" y="670" width="300" height="270" as="geometry" />
        </mxCell>
        <mxCell id="k-J_ichgHFrV_qxmjCFs-497" value="" style="group" vertex="1" connectable="0" parent="k-J_ichgHFrV_qxmjCFs-496">
          <mxGeometry x="10" y="52.5" width="280" height="164" as="geometry" />
        </mxCell>
        <mxCell id="k-J_ichgHFrV_qxmjCFs-498" value="&lt;font style=&quot;font-size: 14px;&quot;&gt;&lt;b&gt;Article&amp;nbsp;&lt;/b&gt;&lt;/font&gt;" style="rounded=0;whiteSpace=wrap;html=1;strokeWidth=2;glass=0;container=1;align=center;" vertex="1" parent="k-J_ichgHFrV_qxmjCFs-497">
          <mxGeometry width="280" height="44.5" as="geometry">
            <mxRectangle x="10" y="52.5" width="90" height="30" as="alternateBounds" />
          </mxGeometry>
        </mxCell>
        <mxCell id="k-J_ichgHFrV_qxmjCFs-499" value="&lt;font style=&quot;font-size: 14px;&quot;&gt;CustomIconComponent&lt;/font&gt;" style="rounded=0;whiteSpace=wrap;html=1;strokeWidth=2;align=center;" vertex="1" parent="k-J_ichgHFrV_qxmjCFs-497">
          <mxGeometry y="44" width="280" height="40" as="geometry" />
        </mxCell>
        <mxCell id="k-J_ichgHFrV_qxmjCFs-500" value="&lt;span style=&quot;font-size: 14px;&quot;&gt;Heading [size=3]&lt;/span&gt;" style="rounded=0;whiteSpace=wrap;html=1;strokeWidth=2;align=center;" vertex="1" parent="k-J_ichgHFrV_qxmjCFs-497">
          <mxGeometry y="84" width="280" height="40" as="geometry" />
        </mxCell>
        <mxCell id="k-J_ichgHFrV_qxmjCFs-501" value="&lt;span style=&quot;font-size: 14px;&quot;&gt;P [size=&quot;lg&quot;]&lt;/span&gt;" style="rounded=0;whiteSpace=wrap;html=1;strokeWidth=2;align=center;" vertex="1" parent="k-J_ichgHFrV_qxmjCFs-497">
          <mxGeometry y="124" width="280" height="40" as="geometry" />
        </mxCell>
        <mxCell id="k-J_ichgHFrV_qxmjCFs-512" value="&lt;span style=&quot;font-size: 14px;&quot;&gt;Link [icon={ icon }]&lt;/span&gt;" style="rounded=0;whiteSpace=wrap;html=1;strokeWidth=2;align=center;" vertex="1" parent="k-J_ichgHFrV_qxmjCFs-497">
          <mxGeometry y="164" width="280" height="40" as="geometry" />
        </mxCell>
        <mxCell id="GyT0Gai-QQJEyU2q_moY-27" value="SocialIconButtons" parent="0" visible="0" />
      </root>
    </mxGraphModel>
  </diagram>
  <diagram name="Copy of Page-1" id="gHjPgkgr55ugM-yUR6U2">
    <mxGraphModel dx="1393" dy="1043" grid="1" gridSize="10" guides="1" tooltips="1" connect="1" arrows="1" fold="1" page="1" pageScale="1" pageWidth="1100" pageHeight="850" math="0" shadow="0">
      <root>
        <mxCell id="c_c9Szs0I66QsipW94Tc-0" />
        <mxCell id="c_c9Szs0I66QsipW94Tc-1" style="" parent="c_c9Szs0I66QsipW94Tc-0" />
        <mxCell id="c_c9Szs0I66QsipW94Tc-2" value="" style="strokeWidth=1;shadow=0;dashed=0;align=center;html=1;shape=mxgraph.mockup.containers.browserWindow;rSize=0;strokeColor=#666666;strokeColor2=#008cff;strokeColor3=#c4c4c4;mainText=,;recursiveResize=0;" vertex="1" parent="c_c9Szs0I66QsipW94Tc-1">
          <mxGeometry x="40" y="30" width="1020" height="560" as="geometry" />
        </mxCell>
        <mxCell id="c_c9Szs0I66QsipW94Tc-3" value="Page 1" style="strokeWidth=1;shadow=0;dashed=0;align=center;html=1;shape=mxgraph.mockup.containers.anchor;fontSize=17;fontColor=#666666;align=left;whiteSpace=wrap;" vertex="1" parent="c_c9Szs0I66QsipW94Tc-2">
          <mxGeometry x="60" y="12" width="110" height="26" as="geometry" />
        </mxCell>
        <mxCell id="c_c9Szs0I66QsipW94Tc-4" value="https://www.draw.io" style="strokeWidth=1;shadow=0;dashed=0;align=center;html=1;shape=mxgraph.mockup.containers.anchor;rSize=0;fontSize=17;fontColor=#666666;align=left;" vertex="1" parent="c_c9Szs0I66QsipW94Tc-2">
          <mxGeometry x="130" y="60" width="250" height="26" as="geometry" />
        </mxCell>
        <mxCell id="c_c9Szs0I66QsipW94Tc-5" value="" style="rounded=0;whiteSpace=wrap;html=1;strokeWidth=2;" vertex="1" parent="c_c9Szs0I66QsipW94Tc-2">
          <mxGeometry y="110" width="1020" height="60" as="geometry" />
        </mxCell>
        <mxCell id="c_c9Szs0I66QsipW94Tc-6" value="" style="group" vertex="1" connectable="0" parent="c_c9Szs0I66QsipW94Tc-2">
          <mxGeometry x="570" y="120" width="290" height="50" as="geometry" />
        </mxCell>
        <mxCell id="c_c9Szs0I66QsipW94Tc-7" value="Link" style="html=1;shadow=0;dashed=0;shape=mxgraph.bootstrap.rrect;rSize=5;strokeColor=none;strokeWidth=1;fillColor=none;fontColor=#000000;whiteSpace=wrap;align=center;verticalAlign=middle;spacingLeft=0;fontStyle=0;fontSize=16;spacing=5;fontFamily=Helvetica;" vertex="1" parent="c_c9Szs0I66QsipW94Tc-6">
          <mxGeometry x="147" width="60" height="40" as="geometry" />
        </mxCell>
        <mxCell id="c_c9Szs0I66QsipW94Tc-8" value="Link" style="html=1;shadow=0;dashed=0;shape=mxgraph.bootstrap.rrect;rSize=5;strokeColor=none;strokeWidth=1;fillColor=none;fontColor=#000000;whiteSpace=wrap;align=center;verticalAlign=middle;spacingLeft=0;fontStyle=0;fontSize=16;spacing=5;fontFamily=Helvetica;" vertex="1" parent="c_c9Szs0I66QsipW94Tc-6">
          <mxGeometry x="220" width="60" height="40" as="geometry" />
        </mxCell>
        <mxCell id="c_c9Szs0I66QsipW94Tc-9" value="Link" style="html=1;shadow=0;dashed=0;shape=mxgraph.bootstrap.rrect;rSize=5;strokeColor=none;strokeWidth=1;fillColor=none;fontColor=#000000;whiteSpace=wrap;align=center;verticalAlign=middle;spacingLeft=0;fontStyle=0;fontSize=16;spacing=5;fontFamily=Helvetica;" vertex="1" parent="c_c9Szs0I66QsipW94Tc-6">
          <mxGeometry x="73" width="60" height="40" as="geometry" />
        </mxCell>
        <mxCell id="c_c9Szs0I66QsipW94Tc-10" value="&lt;font&gt;Link&lt;/font&gt;" style="html=1;shadow=0;dashed=0;shape=mxgraph.bootstrap.rrect;rSize=5;strokeColor=none;strokeWidth=1;fillColor=none;fontColor=#000000;whiteSpace=wrap;align=center;verticalAlign=middle;spacingLeft=0;fontStyle=0;fontSize=16;spacing=5;fontFamily=Helvetica;" vertex="1" parent="c_c9Szs0I66QsipW94Tc-6">
          <mxGeometry width="60" height="40" as="geometry" />
        </mxCell>
        <mxCell id="c_c9Szs0I66QsipW94Tc-11" value="&lt;font style=&quot;font-size: 16px;&quot;&gt;Vanessa Coles&lt;/font&gt;" style="text;strokeColor=none;fillColor=none;align=center;verticalAlign=top;spacingLeft=4;spacingRight=4;overflow=hidden;rotatable=0;points=[[0,0.5],[1,0.5]];portConstraint=eastwest;whiteSpace=wrap;html=1;" vertex="1" parent="c_c9Szs0I66QsipW94Tc-2">
          <mxGeometry x="41" y="125" width="129" height="26" as="geometry" />
        </mxCell>
        <mxCell id="c_c9Szs0I66QsipW94Tc-12" value="&lt;font style=&quot;font-size: 14px;&quot;&gt;ThemeSwitcher&lt;/font&gt;" style="rounded=0;whiteSpace=wrap;html=1;strokeWidth=2;" vertex="1" parent="c_c9Szs0I66QsipW94Tc-2">
          <mxGeometry x="878" y="120" width="120" height="40" as="geometry" />
        </mxCell>
        <mxCell id="c_c9Szs0I66QsipW94Tc-13" value="" style="verticalLabelPosition=bottom;verticalAlign=top;html=1;shape=mxgraph.basic.rect;fillColor2=none;strokeWidth=2;size=20;indent=5;" vertex="1" parent="c_c9Szs0I66QsipW94Tc-1">
          <mxGeometry x="60" y="220" width="980" height="340" as="geometry" />
        </mxCell>
        <mxCell id="c_c9Szs0I66QsipW94Tc-14" value="" style="group" vertex="1" connectable="0" parent="c_c9Szs0I66QsipW94Tc-1">
          <mxGeometry x="448" y="489" width="205" height="50" as="geometry" />
        </mxCell>
        <mxCell id="c_c9Szs0I66QsipW94Tc-15" value="" style="rounded=0;whiteSpace=wrap;html=1;strokeWidth=2;" vertex="1" parent="c_c9Szs0I66QsipW94Tc-14">
          <mxGeometry y="-30" width="205" height="80" as="geometry" />
        </mxCell>
        <mxCell id="c_c9Szs0I66QsipW94Tc-16" value="" style="group" vertex="1" connectable="0" parent="c_c9Szs0I66QsipW94Tc-14">
          <mxGeometry x="30" y="10" width="170" height="30" as="geometry" />
        </mxCell>
        <mxCell id="c_c9Szs0I66QsipW94Tc-17" value="" style="group" vertex="1" connectable="0" parent="c_c9Szs0I66QsipW94Tc-16">
          <mxGeometry x="31" width="134" height="32" as="geometry" />
        </mxCell>
        <mxCell id="c_c9Szs0I66QsipW94Tc-18" value="" style="whiteSpace=wrap;html=1;aspect=fixed;strokeWidth=2;" vertex="1" parent="c_c9Szs0I66QsipW94Tc-17">
          <mxGeometry width="32" height="32" as="geometry" />
        </mxCell>
        <mxCell id="c_c9Szs0I66QsipW94Tc-19" value="" style="whiteSpace=wrap;html=1;aspect=fixed;strokeWidth=2;" vertex="1" parent="c_c9Szs0I66QsipW94Tc-17">
          <mxGeometry x="51" width="32" height="32" as="geometry" />
        </mxCell>
        <mxCell id="c_c9Szs0I66QsipW94Tc-20" value="" style="whiteSpace=wrap;html=1;aspect=fixed;strokeWidth=2;" vertex="1" parent="c_c9Szs0I66QsipW94Tc-17">
          <mxGeometry x="102" width="32" height="32" as="geometry" />
        </mxCell>
        <mxCell id="c_c9Szs0I66QsipW94Tc-21" value="" style="whiteSpace=wrap;html=1;aspect=fixed;strokeWidth=2;" vertex="1" parent="c_c9Szs0I66QsipW94Tc-14">
          <mxGeometry x="10" y="10" width="32" height="32" as="geometry" />
        </mxCell>
        <mxCell id="c_c9Szs0I66QsipW94Tc-22" value="&lt;span style=&quot;font-size: 14px;&quot;&gt;SocialIconButtons&lt;/span&gt;" style="text;html=1;align=center;verticalAlign=middle;whiteSpace=wrap;rounded=0;" vertex="1" parent="c_c9Szs0I66QsipW94Tc-14">
          <mxGeometry x="10" y="-30" width="190" height="30" as="geometry" />
        </mxCell>
        <mxCell id="c_c9Szs0I66QsipW94Tc-23" value="&lt;font style=&quot;font-size: 14px;&quot;&gt;UnderConstructionMsg&lt;/font&gt;" style="rounded=0;whiteSpace=wrap;html=1;strokeWidth=2;" vertex="1" parent="c_c9Szs0I66QsipW94Tc-1">
          <mxGeometry x="365" y="380" width="370" height="60" as="geometry" />
        </mxCell>
        <mxCell id="c_c9Szs0I66QsipW94Tc-24" value="&lt;font style=&quot;font-size: 18px;&quot;&gt;SiteIntro&lt;/font&gt;" style="rounded=0;whiteSpace=wrap;html=1;strokeWidth=2;" vertex="1" parent="c_c9Szs0I66QsipW94Tc-1">
          <mxGeometry x="260" y="240" width="580" height="120" as="geometry" />
        </mxCell>
        <mxCell id="c_c9Szs0I66QsipW94Tc-25" value="SocialIconButtons" visible="0" parent="c_c9Szs0I66QsipW94Tc-0" />
      </root>
    </mxGraphModel>
  </diagram>
</mxfile>
